<svg width="16" height="16" viewBox="0 0 16 16" fill="none" xmlns="http://www.w3.org/2000/svg">
<path d="M15.4839 10.8387H14.9677V9.80649H15.4839V8.51616C15.4839 8.08933 15.1365 7.74197 14.7097 7.74197H13.5012L12.1634 4.73165C11.9306 4.20881 11.4108 3.871 10.8387 3.871C10.2666 3.871 9.74684 4.20881 9.51406 4.73165L9.30116 5.21062L8.776 3.76675C8.57445 3.21165 8.04181 2.83875 7.45135 2.83875C6.89987 2.83875 6.39613 3.16313 6.16774 3.66507L5.40826 5.33629L5.3649 5.24958C5.17858 4.87668 4.80387 4.6452 4.3871 4.6452C3.97032 4.6452 3.59561 4.87668 3.40929 5.24958L3.08516 5.89758C2.85316 5.75771 2.59535 5.67745 2.32258 5.67745C1.32671 5.67745 0.516129 6.71926 0.516129 8.00004C0.516129 9.16778 1.19071 10.1342 2.06452 10.296V11.3549H0V11.871H6.45161C6.59406 11.871 6.70968 11.9866 6.70968 12.1291C6.70968 12.2715 6.59406 12.3871 6.45161 12.3871H3.87097C3.44413 12.3871 3.09677 12.7345 3.09677 13.1613C3.09677 13.5882 3.44413 13.9355 3.87097 13.9355H7.74194C7.88439 13.9355 8 14.0511 8 14.1936C8 14.6204 8.34735 14.9678 8.77419 14.9678H10.0645C10.207 14.9678 10.3226 15.0834 10.3226 15.2258C10.3226 15.3683 10.207 15.4839 10.0645 15.4839H0V16H10.0645C10.4914 16 10.8387 15.6527 10.8387 15.2258C10.8387 14.799 10.4914 14.4516 10.0645 14.4516H8.77419C8.63174 14.4516 8.51613 14.336 8.51613 14.1936C8.51613 13.7667 8.16877 13.4194 7.74194 13.4194H3.87097C3.72852 13.4194 3.6129 13.3038 3.6129 13.1613C3.6129 13.0189 3.72852 12.9033 3.87097 12.9033H6.45161C6.87845 12.9033 7.22581 12.5559 7.22581 12.1291C7.22581 11.7022 6.87845 11.3549 6.45161 11.3549H4.90323V10.8116C5.63432 10.6676 6.19355 9.92571 6.19355 9.03229H9.29032V9.80649H9.80645V10.8387H9.29032C9.00568 10.8387 8.77419 11.0702 8.77419 11.3549V11.871C8.77419 12.1556 9.00568 12.3871 9.29032 12.3871V13.9355H10.8387V12.3871H13.9355V13.9355H15.4839V12.3871C15.7685 12.3871 16 12.1556 16 11.871V11.3549C16 11.0702 15.7685 10.8387 15.4839 10.8387ZM14.4516 10.8387H13.9355V9.80649H14.4516V10.8387ZM13.4194 9.80649V10.8387H11.3548V9.80649H13.4194ZM14.9677 8.51616V9.29036H9.80645V8.51616C9.80645 8.37371 9.92206 8.2581 10.0645 8.2581H14.7097C14.8521 8.2581 14.9677 8.37371 14.9677 8.51616ZM3.87097 5.48029C3.96929 5.28365 4.16697 5.16133 4.3871 5.16133C4.60723 5.16133 4.8049 5.28365 4.90323 5.48029L5.13342 5.94068L4.54503 7.23539C4.376 7.24804 4.2129 7.29165 4.05884 7.36571C3.96 6.91978 3.76077 6.52829 3.49368 6.23487L3.87097 5.48029ZM1.03226 8.00004C1.03226 7.00416 1.6111 6.19358 2.32258 6.19358C3.03406 6.19358 3.6129 7.00416 3.6129 8.00004C3.6129 8.87229 3.16877 9.6021 2.58065 9.7701V8.34404L3.30323 7.38068L2.89032 7.071L2.58065 7.48391V7.22584H2.06452V8.35874L1.76955 7.86739L1.32697 8.13294L2.06452 9.36184V9.7701C1.47639 9.6021 1.03226 8.87229 1.03226 8.00004ZM2.58065 11.3549V10.296C2.848 10.2465 3.09677 10.1234 3.31303 9.94016C3.54297 10.3975 3.93523 10.7226 4.3871 10.8127V11.3549H2.58065ZM4.90323 10.2769V8.77423H4.3871V10.2764C4.07587 10.1732 3.81471 9.89113 3.69135 9.51126C3.96335 9.10481 4.12903 8.57733 4.12903 8.00004C4.12903 7.97449 4.12671 7.94971 4.12594 7.92416C4.28439 7.807 4.46116 7.74197 4.64516 7.74197C5.21445 7.74197 5.67742 8.32081 5.67742 9.03229C5.67742 9.63178 5.34735 10.1324 4.90323 10.2769ZM6.12826 8.51616C5.97884 7.93268 5.58323 7.47281 5.08232 7.30042L6.63742 3.879C6.78245 3.56055 7.10194 3.35487 7.45135 3.35487C7.82581 3.35487 8.16335 3.59126 8.29136 3.943L8.99923 5.88984L7.83226 8.51616H6.12826ZM8.39716 8.51616L9.98581 4.9412C10.1355 4.60468 10.4702 4.38713 10.8387 4.38713C11.2072 4.38713 11.5419 4.60468 11.6916 4.9412L12.9363 7.74197H10.0645C9.63768 7.74197 9.29032 8.08933 9.29032 8.51616H8.39716ZM10.3226 9.80649H10.8387V10.8387H10.3226V9.80649ZM10.3226 13.4194H9.80645V12.3871H10.3226V13.4194ZM14.9677 13.4194H14.4516V12.3871H14.9677V13.4194ZM9.29032 11.871V11.3549H15.4839L15.4844 11.871H9.29032Z" fill="black"/>
<path d="M2.58061 3.09677C3.43455 3.09677 4.129 2.40232 4.129 1.54839C4.129 0.694452 3.43455 0 2.58061 0C1.72668 0 1.03223 0.694452 1.03223 1.54839C1.03223 2.40232 1.72668 3.09677 2.58061 3.09677ZM2.58061 0.516129C3.1499 0.516129 3.61287 0.979097 3.61287 1.54839C3.61287 2.11768 3.1499 2.58065 2.58061 2.58065C2.01132 2.58065 1.54836 2.11768 1.54836 1.54839C1.54836 0.979097 2.01132 0.516129 2.58061 0.516129Z" fill="black"/>
<path d="M8.77419 1.80644H10.8387C10.9812 1.80644 11.0968 1.92206 11.0968 2.06451C11.0968 2.20696 10.9812 2.32257 10.8387 2.32257C10.6963 2.32257 10.5806 2.20696 10.5806 2.06451H10.0645C10.0645 2.49135 10.4119 2.8387 10.8387 2.8387C11.2655 2.8387 11.6129 2.49135 11.6129 2.06451C11.6129 1.63767 11.2655 1.29031 10.8387 1.29031H9.5009C9.5298 1.20928 9.54838 1.12309 9.54838 1.03225C9.54838 0.605411 9.20103 0.258057 8.77419 0.258057C8.34735 0.258057 7.99999 0.605411 7.99999 1.03225H8.51612C8.51612 0.889799 8.63174 0.774186 8.77419 0.774186C8.91664 0.774186 9.03225 0.889799 9.03225 1.03225C9.03225 1.1747 8.91664 1.29031 8.77419 1.29031H6.96774H6.19354V1.80644H6.96774H8.77419Z" fill="black"/>
<path d="M15.9999 3.61294C15.9999 3.1861 15.6526 2.83875 15.2257 2.83875C14.7989 2.83875 14.4515 3.1861 14.4515 3.61294H14.9677C14.9677 3.47049 15.0833 3.35487 15.2257 3.35487C15.3682 3.35487 15.4838 3.47049 15.4838 3.61294C15.4838 3.75539 15.3682 3.871 15.2257 3.871H12.9031V4.38713H15.2257C15.6526 4.38713 15.9999 4.03978 15.9999 3.61294Z" fill="black"/>
<path d="M0 1.29028H0.516129V1.80641H0V1.29028Z" fill="black"/>
<path d="M0.572937 3.19031L0.937895 2.82535L1.30285 3.19031L0.937895 3.55527L0.572937 3.19031Z" fill="black"/>
<path d="M2.32257 3.61292H2.8387V4.12904H2.32257V3.61292Z" fill="black"/>
<path d="M3.85724 3.19104L4.2222 2.82608L4.58716 3.19104L4.2222 3.556L3.85724 3.19104Z" fill="black"/>
<path d="M4.6452 1.29028H5.16133V1.80641H4.6452V1.29028Z" fill="black"/>
</svg>
