<svg width="18" height="15" viewBox="0 0 18 15" fill="none" xmlns="http://www.w3.org/2000/svg">
<path d="M5 11.75H4V12.75H5M5 11.75H15.5M5 11.75V9.75M15.5 11.75H16.5V12.75H15.5M15.5 11.75V10.75M15.5 9.75V8.75H5V9.75M15.5 9.75H5M15.5 9.75V10.75M6 10.75H11.5M15.5 10.75H13M5 12.75V14.25M5 12.75H15.5M15.5 12.75V14.25" stroke="black" stroke-width="0.5" stroke-linecap="round" stroke-linejoin="round"/>
<circle cx="11.25" cy="4" r="1" stroke="black" stroke-width="0.5"/>
<path d="M13.75 1C13.0596 1 12.5 1.55964 12.5 2.25C12.5 2.94036 13.0596 3.5 13.75 3.5V8.65548" stroke="black" stroke-width="0.5" stroke-linecap="round" stroke-linejoin="round"/>
<path d="M12.5 2.25C12.5 1.55964 13.0596 1 13.75 1C14.4404 1 15 1.55964 15 2.25" stroke="black" stroke-width="0.5" stroke-linecap="round" stroke-linejoin="round"/>
<path d="M13.5 5.25007C13 6.75 11.5 5.94036 11.5 5.25001" stroke="black" stroke-width="0.5" stroke-linecap="round" stroke-linejoin="round"/>
<path d="M16 5.25C15.5 6.74993 14 5.94029 14 5.24994" stroke="black" stroke-width="0.5" stroke-linecap="round" stroke-linejoin="round"/>
<path d="M17 3.87561C17 4.42789 16.5523 4.87561 16 4.87561C15.4477 4.87561 15 4.42789 15 3.87561C15 3.32332 15.4477 2.87561 16 2.87561C16.5523 2.87561 17 3.32332 17 3.87561Z" stroke="black" stroke-width="0.5"/>
<path d="M9 8.74995C8.5 8.74995 9 7.24995 7 7.24995C6.83333 6.74995 6 5.84995 4 6.24995" stroke="black" stroke-width="0.5" stroke-linecap="round" stroke-linejoin="round"/>
<path d="M3.5 7C3.63807 7 3.75 6.88807 3.75 6.75C3.75 6.61193 3.63807 6.5 3.5 6.5V7ZM3 7.75V8H3.25V7.75H3ZM1 13.75H0.75V14H1V13.75ZM9.25 12.75C9.25 12.6119 9.13807 12.5 9 12.5C8.86193 12.5 8.75 12.6119 8.75 12.75H9.25ZM3.5 6.5C3.11909 6.5 2.75 6.90307 2.75 7.75H3.25C3.25 6.99693 3.54758 7 3.5 7V6.5ZM3 7.5C2.63864 7.5 2.09461 7.57979 1.63121 7.83002C1.15699 8.08611 0.75 8.53441 0.75 9.25H1.25C1.25 8.76559 1.50968 8.46389 1.86879 8.26998C2.23873 8.07021 2.6947 8 3 8V7.5ZM0.75 9.25V13.75H1.25V9.25H0.75ZM1 14H7.5V13.5H1V14ZM7.5 14C7.77435 14 8.18933 13.9464 8.54568 13.7754C8.90785 13.6015 9.25 13.2813 9.25 12.75H8.75C8.75 13.0187 8.59215 13.1985 8.32932 13.3246C8.06067 13.4536 7.72565 13.5 7.5 13.5V14Z" fill="black"/>
</svg>
