<svg width="16" height="16" viewBox="0 0 16 16" fill="none" xmlns="http://www.w3.org/2000/svg">
<path d="M15.7419 4.64516C15.8846 4.64516 16 4.52955 16 4.3871V3.35484C16 3.21239 15.8846 3.09677 15.7419 3.09677H15.4707C15.3381 1.36748 13.8916 0 12.129 0H3.87097C2.10839 0 0.661936 1.36748 0.52929 3.09677H0.258065C0.115355 3.09677 0 3.21239 0 3.35484V4.3871C0 4.52955 0.115355 4.64516 0.258065 4.64516H0.516129V15.4839H0V16H16V15.4839H15.4839V4.64516H15.7419ZM3.87097 0.516129H12.129C13.6072 0.516129 14.8237 1.65213 14.9546 3.09677H1.04542C1.17626 1.65213 2.39277 0.516129 3.87097 0.516129ZM0.516129 3.6129H15.4839V4.12903H0.516129V3.6129ZM13.9355 10.8387H12.129C12.129 9.98477 11.4346 9.29032 10.5806 9.29032C10.0423 9.29032 9.568 9.56671 9.29032 9.98452C9.01264 9.56645 8.53832 9.29032 8 9.29032C7.46168 9.29032 6.98735 9.56671 6.70968 9.98452C6.432 9.56645 5.95768 9.29032 5.41935 9.29032C4.56542 9.29032 3.87097 9.98477 3.87097 10.8387H2.06452V6.19355H13.9355V10.8387ZM3.87097 13.4194V12.9032H12.129V13.4194H3.87097ZM9.03226 12.3871H6.96774V10.8387C6.96774 10.2694 7.43071 9.80645 8 9.80645C8.56929 9.80645 9.03226 10.2694 9.03226 10.8387V12.3871ZM6.45161 12.3871H4.3871V10.8387C4.3871 10.2694 4.85006 9.80645 5.41935 9.80645C5.98865 9.80645 6.45161 10.2694 6.45161 10.8387V12.3871ZM9.54839 12.3871V10.8387C9.54839 10.2694 10.0114 9.80645 10.5806 9.80645C11.1499 9.80645 11.6129 10.2694 11.6129 10.8387V12.3871H9.54839ZM2.06452 11.3548H3.87097V12.3871H3.6129C3.47019 12.3871 3.35484 12.5027 3.35484 12.6452V13.6774C3.35484 13.8199 3.47019 13.9355 3.6129 13.9355H4.64516V15.4839H2.06452V11.3548ZM5.16129 13.9355H5.67742V15.4839H5.16129V13.9355ZM6.19355 13.9355H7.22581V15.4839H6.19355V13.9355ZM7.74194 13.9355H8.25806V15.4839H7.74194V13.9355ZM8.77419 13.9355H9.80645V15.4839H8.77419V13.9355ZM10.3226 13.9355H10.8387V15.4839H10.3226V13.9355ZM11.3548 13.9355H12.3871C12.5298 13.9355 12.6452 13.8199 12.6452 13.6774V12.6452C12.6452 12.5027 12.5298 12.3871 12.3871 12.3871H12.129V11.3548H13.9355V15.4839H11.3548V13.9355ZM13.9355 5.67742H2.06452V4.64516H13.9355V5.67742ZM1.03226 4.64516H1.54839V15.4839H1.03226V4.64516ZM14.9677 15.4839H14.4516V4.64516H14.9677V15.4839Z" fill="black"/>
</svg>
