<svg width="23" height="23" viewBox="0 0 23 23" fill="none" xmlns="http://www.w3.org/2000/svg">
<path d="M15.7027 3.83333C14.048 3.83333 12.5167 4.6168 11.5 5.95682C10.4832 4.61684 8.95199 3.83333 7.29731 3.83333C4.3304 3.83333 1.91666 6.37146 1.91666 9.49119C1.91666 10.75 2.35672 12.0135 3.18926 13.1451C3.91553 14.1321 5.34578 15.083 6.85994 16.0897C8.68492 17.303 10.572 18.5576 11.1251 19.8278C11.1901 19.977 11.3373 20.0735 11.5 20.0735C11.6627 20.0735 11.8099 19.977 11.8748 19.8278C12.428 18.5576 14.3151 17.303 16.14 16.0897C17.6542 15.083 19.0845 14.1322 19.8107 13.145C20.6433 12.0134 21.0833 10.7499 21.0833 9.49119C21.0834 6.37142 18.6696 3.83333 15.7027 3.83333ZM19.1521 12.6604C18.5115 13.5311 17.1396 14.4431 15.6873 15.4087C14.0502 16.497 12.3657 17.6169 11.4999 18.8455C10.6341 17.6169 8.94962 16.497 7.3126 15.4086C5.86026 14.4431 4.48843 13.5311 3.84786 12.6604C3.10895 11.6561 2.73431 10.5897 2.73431 9.49107C2.73431 6.82223 4.78122 4.65094 7.29722 4.65094C8.86535 4.65094 10.3054 5.49018 11.1494 6.89595C11.2233 7.01906 11.3564 7.09437 11.4999 7.09437C11.6435 7.09437 11.7766 7.01906 11.8505 6.89595C12.6945 5.49018 14.1345 4.65094 15.7026 4.65094C18.2187 4.65094 20.2655 6.82223 20.2655 9.49107C20.2656 10.5898 19.891 11.6561 19.1521 12.6604Z" fill="#4F4F4F"/>
<path d="M5.48905 11.6986C5.48905 11.6982 5.48905 11.6982 5.48905 11.6982C5.41218 11.5927 5.28829 11.5298 5.15787 11.5298C5.07119 11.5298 4.98819 11.5568 4.91786 11.6079C4.82955 11.6725 4.77149 11.7669 4.75431 11.8748C4.73755 11.9828 4.76331 12.0907 4.82791 12.179C4.90437 12.2845 5.02825 12.3475 5.15868 12.3475C5.24536 12.3475 5.32836 12.3205 5.39869 12.2694C5.487 12.2048 5.54506 12.1099 5.56223 12.0024C5.579 11.8944 5.55324 11.7869 5.48905 11.6986Z" fill="#4F4F4F"/>
<path d="M7.46961 6.08374C7.43527 5.88744 7.2664 5.74516 7.06728 5.74516C7.04398 5.74516 6.99205 5.75211 6.98796 5.75292C6.80275 5.7889 6.1457 5.941 5.46984 6.3834C5.02091 6.67819 4.66192 7.04126 4.4027 7.4624C4.24815 7.71221 4.12835 7.98656 4.04617 8.27809C3.95744 8.59455 3.91247 8.93313 3.91288 9.28472C3.91288 9.29535 3.91288 9.30761 3.91328 9.3207V9.32111C3.91655 9.74796 3.97093 10.1671 4.07397 10.5673C4.12058 10.7481 4.28331 10.8744 4.46975 10.8744C4.5041 10.8744 4.53844 10.8699 4.57197 10.8613C4.67746 10.8339 4.76659 10.7673 4.82179 10.6732C4.87739 10.5788 4.89293 10.4688 4.86594 10.3633C4.77926 10.0276 4.73388 9.67396 4.73061 9.31293V9.31174C4.73061 9.30357 4.73061 9.29457 4.73061 9.28476C4.73143 8.74996 4.85204 8.29407 5.09859 7.89134C5.44326 7.32996 5.98052 6.99715 6.37058 6.81643C6.59586 6.71176 6.79702 6.64552 6.92623 6.60872C6.98265 6.59241 7.03744 6.57847 7.08855 6.56702C7.10572 6.56289 7.1372 6.5568 7.1372 6.5568C7.35922 6.51795 7.50845 6.30571 7.46961 6.08374Z" fill="#4F4F4F"/>
<path d="M18.9538 8.27809C18.8716 7.98656 18.7518 7.71222 18.5972 7.4624C18.3953 7.1353 18.1324 6.84174 17.8163 6.59024C17.5681 6.39276 17.2848 6.21944 16.9736 6.0747C16.4814 5.84655 16.0811 5.76556 16.0058 5.7517C16.0058 5.7517 15.956 5.74516 15.9327 5.74516C15.7335 5.74516 15.5647 5.88744 15.5303 6.0837C15.4915 6.3053 15.6403 6.51751 15.8619 6.55676H15.8627C15.8627 6.55676 15.8627 6.55676 15.8632 6.55676C15.8811 6.56003 16.5137 6.68224 17.1094 7.08579C17.4504 7.31516 17.7202 7.59197 17.9112 7.90802C18.1512 8.30708 18.2685 8.75724 18.2693 9.28468C18.2693 9.2904 18.2689 9.31534 18.2689 9.31534C18.2685 9.54063 18.4517 9.72462 18.677 9.72503H18.6778C18.9031 9.72503 19.0862 9.5419 19.0871 9.31702C19.0871 9.31289 19.0871 9.29126 19.0871 9.28472C19.0875 8.93309 19.0425 8.59455 18.9538 8.27809Z" fill="#4F4F4F"/>
</svg>

