<svg width="16" height="16" viewBox="0 0 16 16" fill="none" xmlns="http://www.w3.org/2000/svg">
<g clip-path="url(#clip0)">
<path d="M2.59452 3.7311H3.62768C3.75714 3.7311 3.86205 3.62616 3.86205 3.49672C3.86205 3.36728 3.75714 3.26235 3.62768 3.26235H2.59452C2.21164 3.26235 1.88824 2.95919 1.87355 2.5866C1.87308 2.57488 1.87286 2.56325 1.87286 2.55166C1.87286 2.09091 2.24771 1.71606 2.70846 1.71606C2.96208 1.71606 3.19918 1.82953 3.35886 2.02738C3.42649 2.11116 3.54243 2.13806 3.64014 2.09263C3.73021 2.05072 3.82643 2.02947 3.92611 2.02947C4.16674 2.02947 4.39168 2.15897 4.51308 2.36744C4.54449 2.42138 4.59614 2.46056 4.65658 2.47628C4.71702 2.492 4.78121 2.48297 4.83493 2.45119C4.91208 2.40556 5.00039 2.38144 5.09036 2.38144C5.33414 2.38144 5.54221 2.55531 5.58514 2.79485C5.60521 2.90656 5.70236 2.98788 5.81586 2.98788H6.5743C6.65405 2.98788 6.72252 3.0495 6.72383 3.12244C6.72452 3.15966 6.71058 3.19475 6.68455 3.22125C6.65855 3.24775 6.62377 3.26235 6.58661 3.26235H4.56511C4.43564 3.26235 4.33074 3.36728 4.33074 3.49672C4.33074 3.62616 4.43564 3.7311 4.56511 3.7311H6.58661C6.75058 3.7311 6.90414 3.66666 7.01902 3.54966C7.13389 3.43266 7.19549 3.27791 7.19252 3.11388C7.18655 2.78591 6.90924 2.51913 6.5743 2.51913H5.99099C5.84533 2.15841 5.49299 1.91269 5.09036 1.91269C4.98958 1.91269 4.8898 1.92838 4.79468 1.95878C4.57871 1.70935 4.26146 1.56072 3.92611 1.56072C3.81677 1.56072 3.70983 1.57588 3.60658 1.60588C3.36546 1.37625 3.04639 1.24731 2.70846 1.24731C1.98924 1.24731 1.40411 1.83244 1.40411 2.55166C1.40411 2.56931 1.40449 2.5871 1.40518 2.605C1.43002 3.23647 1.95246 3.7311 2.59452 3.7311Z" fill="black"/>
<path d="M15.7656 14.2838H15.6131C15.8554 13.9976 15.9699 13.5529 15.9699 12.9098C15.9699 12.1068 15.7958 11.099 15.5155 10.2796C15.2717 9.56677 14.8503 8.71699 14.2273 8.71699C13.9141 8.71699 13.6235 8.92989 13.3612 9.35043C13.1338 8.98708 12.8467 8.71699 12.4955 8.71699C12.1178 8.71699 11.774 9.02511 11.4724 9.63324C11.4108 9.61121 11.3448 9.59858 11.2758 9.59858H8.93994C8.81047 9.59858 8.70556 9.70352 8.70556 9.83296C8.70556 9.96239 8.81047 10.0673 8.93994 10.0673H11.2758C11.3403 10.0673 11.3928 10.1198 11.3928 10.1844V10.4494C11.3928 10.5139 11.3403 10.5664 11.2758 10.5664H4.72419C4.65966 10.5664 4.60716 10.5139 4.60716 10.4494V10.1844C4.60716 10.1198 4.65966 10.0673 4.72419 10.0673H8.00244C8.13191 10.0673 8.23681 9.96239 8.23681 9.83296C8.23681 9.70352 8.13191 9.59858 8.00244 9.59858H6.05897C6.23831 9.19818 6.33262 8.76011 6.33262 8.31849C6.33262 6.59374 4.92944 5.19055 3.20469 5.19055C1.47994 5.19055 0.0767187 6.59374 0.0767187 8.31849C0.0767187 9.95336 1.33753 11.2991 2.93784 11.435V12.7699C2.88847 12.7632 2.83841 12.7597 2.78791 12.7597C2.69894 12.7597 2.61147 12.7701 2.52631 12.7905C2.25347 12.4217 1.80747 12.2046 1.34213 12.2263C0.630156 12.2593 0.0492813 12.8431 0.0198125 13.5554C0.00915625 13.8134 0.0718437 14.0665 0.194344 14.2875C0.084 14.3066 0 14.4025 0 14.5182C0 14.6476 0.104906 14.7526 0.234375 14.7526H0.689687H15.7656C15.8951 14.7526 16 14.6476 16 14.5182C16 14.3888 15.8951 14.2838 15.7656 14.2838ZM4.73519 13.942C4.7305 13.8737 4.71806 13.806 4.69919 13.7401H5.44763V14.2838H4.69991C4.73097 14.1745 4.74325 14.0593 4.73519 13.942ZM9.82228 12.0031V12.3484H6.28088V12.0031H9.82228ZM10.8154 12.0031C10.8005 12.1201 10.7881 12.2356 10.7784 12.3484H10.291V12.0031H10.8154ZM11.7964 12.8171C11.8261 12.8171 11.8503 12.8413 11.8503 12.8711V13.2174C11.8503 13.2471 11.8261 13.2713 11.7964 13.2713H4.20359C4.17387 13.2713 4.14966 13.2471 4.14966 13.2174V12.8711C4.14966 12.8413 4.17384 12.8171 4.20359 12.8171H11.7964ZM5.91638 13.7401H10.1868V14.2838H5.91638V13.7401ZM10.6555 13.7401H10.8431C10.9049 13.9732 10.9971 14.1502 11.1107 14.2838H10.6555V13.7401H10.6555ZM13.6269 9.83611C13.8299 9.42889 14.0544 9.18574 14.2273 9.18574C14.4205 9.18574 14.7576 9.51196 15.072 10.4314C15.3327 11.1935 15.5012 12.1664 15.5012 12.9098C15.5012 14.2312 15.0217 14.2312 14.2273 14.2312C14.1297 14.2312 14.027 14.2311 13.9256 14.2271C14.1374 13.9401 14.2381 13.5121 14.2381 12.9098C14.2381 12.1068 14.064 11.099 13.7837 10.2796C13.7357 10.1394 13.6807 9.9938 13.6188 9.85043C13.6216 9.84574 13.6244 9.84108 13.6269 9.83611ZM12.4955 9.18577C12.6886 9.18577 13.0257 9.51199 13.3402 10.4314C13.6008 11.1935 13.7693 12.1664 13.7693 12.9099C13.7693 14.2312 13.2898 14.2312 12.4954 14.2312C11.8652 14.2312 11.5054 14.2074 11.3334 13.7401H11.7964C12.0846 13.7401 12.319 13.5056 12.319 13.2175V12.8711C12.319 12.5829 12.0846 12.3485 11.7964 12.3485H11.2491C11.2593 12.2355 11.2724 12.12 11.2882 12.0025C11.6054 11.9958 11.8616 11.7362 11.8616 11.4174V11.1523C11.8616 11.0204 11.8172 10.899 11.7433 10.8009C11.8172 10.7029 11.8616 10.5814 11.8616 10.4495V10.1845C11.8616 10.1125 11.8479 10.0438 11.824 9.98005C11.83 9.97077 11.8356 9.96114 11.8403 9.95083C12.0595 9.47171 12.3044 9.18577 12.4955 9.18577ZM11.2758 11.0352C11.3403 11.0352 11.3928 11.0877 11.3928 11.1522V11.4173C11.3928 11.4818 11.3403 11.5343 11.2758 11.5343H4.72419C4.65966 11.5343 4.60716 11.4818 4.60716 11.4173V11.1522C4.60716 11.0877 4.65966 11.0352 4.72419 11.0352H11.2758ZM0.5455 8.31849C0.5455 6.85221 1.73844 5.6593 3.20472 5.6593C4.671 5.6593 5.86391 6.85221 5.86391 8.31849C5.86391 8.75861 5.75422 9.19458 5.54672 9.57921C5.54328 9.58558 5.54028 9.59205 5.5375 9.59858H4.72422C4.40122 9.59858 4.13844 9.86136 4.13844 10.1844V10.4494C4.13844 10.5687 4.1745 10.6797 4.23603 10.7724C4.22725 10.7749 4.2185 10.7777 4.20984 10.7812C3.95294 10.8862 3.68347 10.9487 3.40666 10.9694V9.12286L4.21641 8.31308C4.30794 8.22155 4.30794 8.07315 4.21641 7.98165C4.12484 7.89011 3.97647 7.89011 3.88494 7.98165L3.40666 8.45993V7.84821C3.40666 7.71877 3.30175 7.61383 3.17228 7.61383C3.04281 7.61383 2.93791 7.71877 2.93791 7.84821V9.2573L2.48703 8.80652C2.39547 8.71499 2.24709 8.71496 2.15556 8.80652C2.06403 8.89805 2.06403 9.04646 2.15556 9.13799L2.93788 9.92033V10.9643C1.59641 10.83 0.5455 9.69474 0.5455 8.31849ZM3.40663 11.4399C3.65637 11.424 3.90116 11.3787 4.13841 11.3045V11.4173C4.13841 11.7403 4.40119 12.0031 4.72419 12.0031H5.81213V12.3484H4.20356C3.91534 12.3484 3.68088 12.5828 3.68088 12.871V13.022C3.63088 13.0252 3.58131 13.0318 3.53247 13.0426C3.49269 13.0073 3.45056 12.9751 3.40659 12.9459V11.4399H3.40663ZM0.776656 14.2838C0.581313 14.1005 0.476938 13.8462 0.488156 13.5748C0.507719 13.1031 0.892375 12.7164 1.36388 12.6946C1.72391 12.6781 2.05119 12.8645 2.22038 13.1813C2.27831 13.2897 2.41016 13.335 2.52253 13.2849C2.60653 13.2475 2.69581 13.2285 2.78797 13.2285C2.98003 13.2285 3.16162 13.3128 3.28619 13.4596C3.35134 13.5365 3.45834 13.5631 3.55191 13.5257C3.61781 13.4994 3.68688 13.4871 3.75775 13.4888C3.84772 13.6361 4.00806 13.7354 4.19194 13.7395C4.23572 13.8107 4.26194 13.8918 4.26756 13.9741C4.27516 14.0848 4.24878 14.1919 4.1925 14.2838H0.776656Z" fill="black"/>
<path d="M8.71953 6.6665H11.0637C11.1932 6.6665 11.2981 6.56156 11.2981 6.43213C11.2981 6.30269 11.1932 6.19775 11.0637 6.19775H8.71953C8.56446 6.19775 8.43749 6.07572 8.43646 5.92572C8.43646 5.92503 8.43643 5.92225 8.43643 5.92156C8.43643 5.59888 8.69912 5.33091 9.02206 5.32425C9.1349 5.32191 9.23006 5.23947 9.24846 5.12806C9.34399 4.54906 9.83987 4.12882 10.4276 4.12882C11.0182 4.12882 11.5146 4.55141 11.6077 5.13366C11.6277 5.25866 11.7436 5.34506 11.8689 5.3291C11.8993 5.32522 11.9237 5.32338 11.9459 5.32338C12.1573 5.32338 12.3552 5.43703 12.4623 5.61997C12.5044 5.69178 12.5814 5.73591 12.6646 5.73591H13.3072C13.4345 5.73591 13.5381 5.8395 13.5381 5.96681C13.5381 6.09416 13.4346 6.19775 13.3072 6.19775H12.0011C11.8717 6.19775 11.7668 6.30269 11.7668 6.43213C11.7668 6.56156 11.8717 6.6665 12.0011 6.6665H13.3072C13.693 6.6665 14.0069 6.35263 14.0069 5.96681C14.0069 5.58103 13.693 5.26716 13.3072 5.26716H12.7882C12.6039 5.03063 12.3257 4.88041 12.0256 4.85766C11.8223 4.15275 11.1799 3.66003 10.4276 3.66003C9.66996 3.66003 9.02193 4.16182 8.82449 4.87635C8.33781 4.97513 7.96765 5.40975 7.96765 5.92153L7.96768 5.92891C7.97053 6.33563 8.30781 6.6665 8.71953 6.6665Z" fill="black"/>
</g>
<defs>
<clipPath id="clip0">
<rect width="16" height="16" fill="white"/>
</clipPath>
</defs>
</svg>
