<svg width="24" height="27" viewBox="0 0 24 27" fill="none" xmlns="http://www.w3.org/2000/svg">
<path d="M22.7564 0H1.2436C0.240564 0 -0.349051 1.13045 0.225656 1.95304C0.23672 1.96872 -0.114888 1.4899 8.43444 13.127C8.62622 13.4045 8.72756 13.7292 8.72756 14.0666V25.2822C8.72756 26.3728 9.9778 26.9744 10.8256 26.3329L14.4696 23.5859C14.9725 23.2125 15.2725 22.6161 15.2725 21.9896V14.0666C15.2725 13.7292 15.3738 13.4045 15.5656 13.127C24.1083 1.49884 23.7633 1.96862 23.7744 1.95304C24.3488 1.13082 23.7599 0 22.7564 0V0ZM14.3037 12.2126C13.9505 12.6934 13.7142 13.3638 13.7142 14.0666V21.9895C13.7142 22.1253 13.649 22.2546 13.5399 22.3352C13.444 22.4059 14.1706 21.8598 10.2859 24.7882V14.0666C10.2859 13.4056 10.0857 12.7697 9.70712 12.2277C9.69772 12.2143 9.96154 12.5736 4.34953 4.93472H19.6505L14.3037 12.2126ZM20.7953 3.37635H3.20474L1.86911 1.55831H22.1309L20.7953 3.37635Z" fill="#828282"/>
</svg>
