<svg width="24" height="24" viewBox="0 0 24 24" fill="none" xmlns="http://www.w3.org/2000/svg">
<path d="M21.1014 11.382C21.5326 10.7256 21.7588 9.96902 21.7588 9.17355C21.7588 8.11734 21.3537 7.11848 20.6181 6.3609C20.0031 5.72746 19.2128 5.31957 18.3539 5.18441C18.3914 5.00641 18.4102 4.8243 18.4102 4.63941C18.4103 3.18406 17.2262 2 15.7708 2C14.3154 2 13.1314 3.18406 13.1314 4.63941C13.1314 4.95109 13.1852 5.25531 13.2897 5.54191C11.2662 5.66055 9.65625 7.34434 9.65625 9.39703C9.65625 10.3543 9.99969 11.2527 10.6296 11.9595C10.3487 12.4593 10.2014 13.0205 10.2014 13.6003C10.2014 15.4519 11.7078 16.9582 13.5595 16.9582C14.3736 16.9582 15.1488 16.6604 15.75 16.1434V21.2188H11.6094V19.7723C12.0696 19.5634 12.3906 19.0999 12.3906 18.5625C12.3906 17.8302 11.7948 17.2344 11.0625 17.2344H3.32812C2.59578 17.2344 2 17.8302 2 18.5625C2 19.0999 2.32105 19.5635 2.78125 19.7723V21.6094C2.78125 21.8251 2.95617 22 3.17188 22H4.73438C4.95008 22 5.125 21.8251 5.125 21.6094V19.8906H9.26562V21.2188H8.89453C8.67883 21.2188 8.50391 21.3936 8.50391 21.6094C8.50391 21.8251 8.67883 22 8.89453 22H17.8984C18.1141 22 18.2891 21.8251 18.2891 21.6094C18.2891 21.3936 18.1141 21.2188 17.8984 21.2188H16.5312V16.1561C17.1231 16.6653 17.8861 16.9583 18.6901 16.9583C20.5152 16.9583 22 15.4735 22 13.6484C22 12.8011 21.6763 11.9932 21.1014 11.382ZM4.34375 21.2188H3.5625V19.8906H4.34375V21.2188ZM10.8281 21.2188H10.0469V19.8906H10.8281V21.2188ZM11.0625 19.1094H9.65625H4.73438H3.32812C3.02656 19.1094 2.78125 18.8641 2.78125 18.5625C2.78125 18.2609 3.02656 18.0156 3.32812 18.0156H11.0625C11.3641 18.0156 11.6094 18.2609 11.6094 18.5625C11.6094 18.8641 11.3641 19.1094 11.0625 19.1094ZM18.6901 16.177C17.8076 16.177 16.9897 15.7148 16.5312 14.9643V13.1446C16.5345 13.1416 16.5378 13.1389 16.5409 13.1359L18.7609 10.9159C18.9134 10.7633 18.9134 10.516 18.7609 10.3634C18.6084 10.2109 18.3611 10.2109 18.2084 10.3634L16.5312 12.0406V8.39594C16.5312 8.18019 16.3563 8.00531 16.1406 8.00531C15.9249 8.00531 15.75 8.18019 15.75 8.39594V9.40961L15.4388 9.09836C15.2863 8.94582 15.039 8.94582 14.8863 9.09836C14.7338 9.2509 14.7338 9.49824 14.8863 9.65078L15.75 10.5145V13.0197L14.6813 11.951C14.6809 11.9507 14.6805 11.9503 14.6802 11.9499L13.7362 11.0059C13.5836 10.8534 13.3363 10.8534 13.1837 11.0059C13.0312 11.1584 13.0312 11.4058 13.1837 11.5583L13.7639 12.1385L12.7035 12.7182C12.5142 12.8217 12.4446 13.059 12.5481 13.2483C12.619 13.3782 12.753 13.4517 12.8912 13.4517C12.9545 13.4517 13.0187 13.4362 13.0782 13.4037L14.3396 12.7142L15.75 14.1246V14.956C15.2812 15.7115 14.4508 16.177 13.5595 16.177C12.1386 16.177 10.9827 15.0211 10.9827 13.6003C10.9827 13.072 11.142 12.5639 11.4432 12.1309C11.5532 11.9729 11.5316 11.7582 11.3923 11.6252C10.7766 11.0376 10.4375 10.2463 10.4375 9.39703C10.4375 7.69844 11.8194 6.31652 13.518 6.31652C13.6411 6.31652 13.7655 6.32449 13.8984 6.34086C14.0527 6.35977 14.2033 6.2857 14.2823 6.15207C14.3614 6.0184 14.3538 5.85062 14.2629 5.72469C14.0337 5.40691 13.9126 5.03164 13.9126 4.63949C13.9126 3.61488 14.7462 2.78133 15.7708 2.78133C16.7954 2.78133 17.6289 3.61488 17.6289 4.63949C17.6289 4.89402 17.5782 5.14078 17.4783 5.37301C17.4272 5.49172 17.4382 5.62797 17.5075 5.73699C17.5768 5.84602 17.6955 5.91375 17.8247 5.91785C19.5926 5.97422 20.9775 7.4043 20.9775 9.17355C20.9775 9.91156 20.736 10.608 20.2792 11.1878C20.1495 11.3525 20.1728 11.5902 20.3321 11.7264C20.8956 12.2083 21.2188 12.9089 21.2188 13.6484C21.2188 15.0427 20.0844 16.177 18.6901 16.177Z" fill="#333333"/>
<path d="M19.7758 21.3332C19.7032 21.2605 19.6024 21.2188 19.4997 21.2188C19.3969 21.2188 19.2961 21.2605 19.2235 21.3332C19.1509 21.4059 19.1091 21.5066 19.1091 21.6094C19.1091 21.7121 19.1508 21.8129 19.2235 21.8855C19.2961 21.9582 19.3969 22 19.4997 22C19.6024 22 19.7032 21.9582 19.7758 21.8855C19.8485 21.8129 19.8903 21.7121 19.8903 21.6094C19.8903 21.5066 19.8485 21.4059 19.7758 21.3332Z" fill="#333333"/>
<path d="M6.08857 8.71829C5.50834 8.54376 4.90431 8.72263 4.50885 9.13021C4.39744 9.01513 4.26767 8.91677 4.12256 8.83876C3.75342 8.64032 3.32904 8.59759 2.92775 8.71829C2.72119 8.78044 2.60408 8.99829 2.66623 9.20489C2.72834 9.41142 2.94627 9.52845 3.15283 9.46638C3.35431 9.40579 3.56736 9.42724 3.75267 9.52685C3.93802 9.62645 4.07345 9.79228 4.13408 9.99376C4.18373 10.1589 4.33576 10.2719 4.50814 10.2719C4.68053 10.2719 4.83256 10.1589 4.8822 9.9938C5.00736 9.5779 5.44756 9.3413 5.86349 9.46642C6.0701 9.52856 6.28791 9.41149 6.3501 9.20489C6.41224 8.99829 6.29513 8.78044 6.08857 8.71829Z" fill="#333333"/>
<path d="M8.58045 5.83696C8.17924 5.71626 7.75486 5.759 7.38568 5.95739C7.24084 6.03525 7.11131 6.13341 7.00006 6.24818C6.88881 6.13341 6.75928 6.03525 6.61443 5.95739C6.24525 5.75896 5.8208 5.71622 5.41967 5.83696C5.21307 5.89911 5.096 6.11696 5.15814 6.32361C5.22029 6.53021 5.4383 6.6472 5.64475 6.58513C5.84611 6.52454 6.0592 6.54595 6.24455 6.6456C6.4299 6.74521 6.56537 6.91103 6.626 7.11255C6.67564 7.27763 6.82768 7.39064 7.00006 7.39064C7.17244 7.39064 7.32447 7.27763 7.37412 7.11255C7.43475 6.91107 7.57021 6.74525 7.75557 6.6456C7.94088 6.54599 8.15389 6.52454 8.35537 6.58513C8.56193 6.64724 8.77975 6.53017 8.84197 6.32361C8.90412 6.117 8.78705 5.89915 8.58045 5.83696Z" fill="#333333"/>
<path d="M13.5181 7.11086H13.515C13.2993 7.11086 13.1259 7.28574 13.1259 7.50148C13.1259 7.71722 13.3024 7.89211 13.5181 7.89211C13.7338 7.89211 13.9087 7.71722 13.9087 7.50148C13.9087 7.28574 13.7338 7.11086 13.5181 7.11086Z" fill="#333333"/>
<path d="M12.4152 7.80649C12.259 7.65758 12.0117 7.66356 11.8629 7.81969C11.4559 8.24668 11.2317 8.80684 11.2317 9.39692C11.2317 9.61266 11.4066 9.78754 11.6223 9.78754C11.838 9.78754 12.013 9.61266 12.013 9.39692C12.013 9.00848 12.1605 8.63977 12.4284 8.35875C12.5773 8.20258 12.5713 7.95531 12.4152 7.80649Z" fill="#333333"/>
</svg>

