<svg width="24" height="24" viewBox="0 0 24 24" fill="none" xmlns="http://www.w3.org/2000/svg">
<path fill-rule="evenodd" clip-rule="evenodd" d="M21.555 7.03068L16.3002 1.77593C17.765 0.643834 19.883 0.750482 21.2288 2.09632C22.5719 3.43943 22.6795 5.55946 21.555 7.03068ZM2.77837 15.7654L7.55188 20.5389L4.39368 21.3284L1.18719 22.13L2.77837 15.7654ZM21.9359 1.38921C20.1168 -0.429862 17.183 -0.463334 15.3277 1.29386C15.2826 1.31702 15.2402 1.34749 15.2025 1.38527C15.1662 1.42148 15.1368 1.46186 15.114 1.50487L2.15435 14.4334C2.09005 14.4975 2.04444 14.578 2.02241 14.6661L0.0149394 22.696C-0.0276575 22.8663 0.022267 23.0466 0.146457 23.1708C0.270647 23.295 0.450891 23.3449 0.621278 23.3023L4.63621 22.2986L8.65115 21.2948C8.73906 21.2729 8.81936 21.2274 8.88343 21.1633L21.932 8.11477C23.7853 6.2614 23.7905 3.24378 21.9359 1.38921Z" fill="white"/>
</svg>

