<svg width="12" height="15" viewBox="0 0 12 15" fill="none" xmlns="http://www.w3.org/2000/svg">
<path d="M10.9234 2.5789C9.79107 0.94009 7.99649 0 6.00017 0C4.00386 0 2.20928 0.94009 1.07695 2.5789C-0.049823 4.20942 -0.309998 6.2737 0.379593 8.09748C0.564042 8.59552 0.857242 9.0794 1.24897 9.53283L5.60535 14.6498C5.70387 14.7657 5.84823 14.8324 6.00017 14.8324C6.15212 14.8324 6.29648 14.7657 6.395 14.6498L10.7502 9.53422C11.1436 9.07818 11.4365 8.59483 11.6194 8.10078C12.3103 6.2737 12.0502 4.20942 10.9234 2.5789ZM10.6482 7.73756C10.5071 8.11874 10.2769 8.49561 9.96413 8.8581C9.96327 8.85897 9.9624 8.85984 9.9617 8.86088L6.00017 13.5139L2.03622 8.85796C1.72366 8.49578 1.49338 8.11894 1.35094 7.73411C0.780647 6.22581 0.997078 4.51904 1.93007 3.16875C2.86599 1.81413 4.34958 1.03723 6.00017 1.03723C7.65074 1.03723 9.13416 1.8141 10.0701 3.16875C11.0033 4.51904 11.2199 6.22581 10.6482 7.73756Z" fill="white"/>
<path d="M6.0002 3.07715C4.39888 3.07715 3.09595 4.37991 3.09595 5.9814C3.09595 7.5829 4.39871 8.88566 6.0002 8.88566C7.6017 8.88566 8.90445 7.5829 8.90445 5.9814C8.90445 4.38008 7.60152 3.07715 6.0002 3.07715ZM6.0002 7.8484C4.97074 7.8484 4.13317 7.01083 4.13317 5.98137C4.13317 4.95191 4.97074 4.11434 6.0002 4.11434C7.02966 4.11434 7.86723 4.95191 7.86723 5.98137C7.86723 7.01083 7.02966 7.8484 6.0002 7.8484Z" fill="white"/>
</svg>

