<svg width="12" height="12" viewBox="0 0 12 12" fill="none" xmlns="http://www.w3.org/2000/svg">
<path d="M11.9687 4.53466C11.8901 4.2811 11.6746 4.10101 11.4196 4.07703L7.95612 3.74887L6.58655 0.403834C6.48556 0.158687 6.25558 0 6.00005 0C5.74452 0 5.51453 0.158687 5.41355 0.404407L4.04398 3.74887L0.579907 4.07703C0.325385 4.10159 0.110414 4.2811 0.0314018 4.53466C-0.0476101 4.78821 0.0253592 5.06632 0.217899 5.24163L2.83591 7.6375L2.06392 11.186C2.00743 11.4469 2.10448 11.7166 2.31194 11.8731C2.42346 11.9572 2.55392 12 2.68549 12C2.79892 12 2.91144 11.9681 3.01243 11.905L6.00005 10.0418L8.98657 11.905C9.20511 12.0422 9.4806 12.0297 9.6876 11.8731C9.89516 11.7162 9.99212 11.4464 9.93563 11.186L9.16364 7.6375L11.7816 5.24211C11.9742 5.06632 12.0477 4.78869 11.9687 4.53466Z" fill="#FFC107"/>
</svg>

