<svg width="24" height="23" viewBox="0 0 24 23" fill="none" xmlns="http://www.w3.org/2000/svg">
<path d="M15.1862 15.2036H22.0803C23.1388 15.2036 24 14.3423 24 13.2837C24 12.225 23.1388 11.3638 22.0803 11.3638H17.2272L17.7836 10.4997C18.8619 10.2034 19.8346 9.56461 20.5389 8.68626C21.2954 7.74295 21.7119 6.55627 21.7119 5.34473C21.7119 2.39761 19.3145 0 16.3678 0C13.421 0 11.0236 2.39761 11.0236 5.34473C11.0236 6.55627 11.4403 7.74295 12.1967 8.68631C12.901 9.56456 13.8737 10.2034 14.952 10.4997L15.9703 12.081C16.0543 12.2163 16.2061 12.3019 16.3678 12.3013H22.0802C22.6218 12.3013 23.0625 12.742 23.0625 13.2837C23.0625 13.8254 22.6218 14.2661 22.0802 14.2661H15.1862C14.0984 14.2661 13.2133 15.1512 13.2133 16.2392C13.2133 16.7662 13.4185 17.2617 13.791 17.6343C14.1636 18.007 14.659 18.2123 15.186 18.2122C16.5607 18.2122 18.6053 18.2122 20.125 18.212C20.5426 18.2119 20.9349 18.3748 21.2295 18.6704C21.5251 18.967 21.6878 19.3629 21.6878 19.7852V19.8362C21.6878 20.2376 21.5315 20.6151 21.2477 20.8989C20.9639 21.1827 20.5865 21.339 20.1852 21.339L6.64256 21.3382L7.29975 20.3175C8.47284 19.9988 9.53142 19.3056 10.297 18.3509C11.1156 17.3301 11.5664 16.0459 11.5664 14.7348C11.5664 11.5456 8.97206 8.95097 5.7832 8.95097C2.59434 8.95097 0 11.5456 0 14.7348C0 16.0459 0.450797 17.3301 1.26942 18.3509C2.03498 19.3056 3.09361 19.9988 4.26666 20.3175L5.38575 22.0555C5.46975 22.1906 5.62125 22.2763 5.78316 22.2757L20.1851 22.2765H20.1852C20.8369 22.2765 21.4497 22.0227 21.9106 21.5618C22.3715 21.1009 22.6253 20.4881 22.6253 19.8362V19.7852C22.6253 19.1132 22.3654 18.4823 21.8936 18.0087C21.4218 17.5352 20.7938 17.2745 20.1251 17.2745H20.1248C18.6052 17.2747 16.5607 17.2747 15.186 17.2748C14.9094 17.2748 14.6495 17.1671 14.454 16.9716C14.2584 16.776 14.1508 16.5159 14.1508 16.2392C14.1508 15.6681 14.6152 15.2036 15.1862 15.2036ZM15.3539 9.63478C13.3563 9.16453 11.9611 7.40039 11.9611 5.34473C11.9611 2.91459 13.938 0.9375 16.3678 0.9375C18.7977 0.9375 20.7745 2.91459 20.7745 5.34473C20.7745 7.40044 19.3793 9.16453 17.3818 9.63478C17.2636 9.66258 17.1608 9.73519 17.0951 9.83728L16.3678 10.9667L15.6405 9.83728C15.5748 9.73519 15.472 9.66262 15.3539 9.63478ZM4.66833 19.4524C2.47167 18.9352 0.9375 16.9953 0.9375 14.7348C0.9375 12.0625 3.11128 9.88847 5.78325 9.88847C8.45517 9.88847 10.629 12.0625 10.629 14.7348C10.629 16.9953 9.09478 18.9353 6.89813 19.4524C6.77995 19.4802 6.67716 19.5528 6.61144 19.6549L5.78325 20.9411L4.95497 19.6548C4.8893 19.5528 4.78645 19.4802 4.66833 19.4524Z" fill="#F2994A"/>
<path d="M9.26029 14.7348C9.26029 12.8174 7.70053 11.2574 5.78325 11.2574C3.86601 11.2574 2.30615 12.8173 2.30615 14.7348C2.30615 16.6523 3.86596 18.2122 5.78325 18.2122C7.70048 18.2122 9.26029 16.6522 9.26029 14.7348ZM3.24365 14.7348C3.24365 13.3343 4.3829 12.1949 5.78325 12.1949C7.18354 12.1949 8.32279 13.3343 8.32279 14.7348C8.32279 16.1353 7.18354 17.2747 5.78325 17.2747C4.3829 17.2747 3.24365 16.1353 3.24365 14.7348Z" fill="#F2994A"/>
<path d="M19.5962 5.34475C19.5962 3.56439 18.1479 2.11591 16.3677 2.11591C14.5875 2.11591 13.1392 3.56434 13.1392 5.34475C13.1392 7.12511 14.5875 8.57359 16.3677 8.57359C18.1478 8.57359 19.5962 7.12511 19.5962 5.34475ZM14.0767 5.34475C14.0767 4.08128 15.1044 3.05341 16.3677 3.05341C17.631 3.05341 18.6587 4.08128 18.6587 5.34475C18.6587 6.60822 17.631 7.63609 16.3677 7.63609C15.1043 7.63609 14.0767 6.60817 14.0767 5.34475Z" fill="#F2994A"/>
</svg>
