<svg width="161" height="159" viewBox="0 0 161 159" fill="none" xmlns="http://www.w3.org/2000/svg">
<path d="M15 131H138.5" stroke="black" stroke-width="2"/>
<path d="M24 131.75L24 67.5" stroke="black" stroke-width="2"/>
<mask id="path-3-inside-1" fill="white">
<path fill-rule="evenodd" clip-rule="evenodd" d="M40.439 57.3782C41.3616 55.2668 41.8723 52.9418 41.8723 50.5C41.8723 40.835 33.8706 33 24 33C14.1294 33 6.12766 40.835 6.12766 50.5C6.12766 52.9418 6.63841 55.2668 7.56101 57.3782C2.90654 61.6644 0 67.7499 0 74.5C0 87.4787 10.7452 98 24 98C37.2548 98 48 87.4787 48 74.5C48 67.7499 45.0935 61.6644 40.439 57.3782Z"/>
</mask>
<path d="M40.439 57.3782L38.6063 56.5774C38.2647 57.3591 38.4566 58.2715 39.0842 58.8494L40.439 57.3782ZM7.56101 57.3782L8.91583 58.8494C9.5434 58.2715 9.73529 57.3591 9.39369 56.5774L7.56101 57.3782ZM39.8723 50.5C39.8723 52.6602 39.421 54.7131 38.6063 56.5774L42.2717 58.179C43.3022 55.8206 43.8723 53.2234 43.8723 50.5H39.8723ZM24 35C32.806 35 39.8723 41.9791 39.8723 50.5H43.8723C43.8723 39.691 34.9353 31 24 31V35ZM8.12766 50.5C8.12766 41.9791 15.194 35 24 35V31C13.0647 31 4.12766 39.691 4.12766 50.5H8.12766ZM9.39369 56.5774C8.57903 54.7131 8.12766 52.6602 8.12766 50.5H4.12766C4.12766 53.2234 4.69779 55.8206 5.72834 58.179L9.39369 56.5774ZM2 74.5C2 68.3389 4.64994 62.7778 8.91583 58.8494L6.2062 55.907C1.16314 60.5511 -2 67.1608 -2 74.5H2ZM24 96C11.8098 96 2 86.3346 2 74.5H-2C-2 88.6227 9.6805 100 24 100V96ZM46 74.5C46 86.3346 36.1902 96 24 96V100C38.3195 100 50 88.6227 50 74.5H46ZM39.0842 58.8494C43.3501 62.7778 46 68.3389 46 74.5H50C50 67.1608 46.8369 60.5511 41.7938 55.907L39.0842 58.8494Z" fill="black" mask="url(#path-3-inside-1)"/>
<g filter="url(#filter0_d)">
<path d="M54.8187 72H51.7578C51.0441 72 50.4656 72.5785 50.4656 73.2923V106.469H56.111V73.2923C56.111 72.5786 55.5325 72 54.8187 72Z" fill="#F2994A"/>
<path d="M112.794 72H109.733C109.02 72 108.441 72.5785 108.441 73.2923V106.469H114.087V73.2923C114.087 72.5786 113.508 72 112.794 72Z" fill="#F2994A"/>
<path d="M48.8599 108.769V128.211C48.8599 129.347 49.7807 130.268 50.9166 130.268H55.6582C56.7942 130.268 57.7151 129.347 57.7151 128.211V108.769H48.8599Z" fill="#F2994A"/>
<path d="M115.691 108.769V128.211C115.691 129.347 114.771 130.268 113.635 130.268H108.893C107.757 130.268 106.836 129.347 106.836 128.211V108.769H115.691Z" fill="#F2994A"/>
<path d="M117.775 102.539H46.7773C45.2435 102.539 44 103.783 44 105.316V111.148C44 112.682 45.2435 113.925 46.7773 113.925H117.775C119.308 113.925 120.552 112.682 120.552 111.148V105.316C120.552 103.783 119.308 102.539 117.775 102.539Z" fill="#F2C94C"/>
<path d="M48.6208 111.148V105.316C48.6208 103.782 49.8643 102.539 51.398 102.539H46.7773C45.2435 102.539 44 103.782 44 105.316V111.148C44 112.682 45.2435 113.925 46.7773 113.925H51.398C49.8643 113.926 48.6208 112.682 48.6208 111.148Z" fill="#F2994A"/>
<path d="M117.775 91.1378H46.7773C45.2435 91.1378 44 92.3813 44 93.9152V95.2616C44 96.7955 45.2435 98.0389 46.7773 98.0389H117.775C119.308 98.0389 120.552 96.7953 120.552 95.2616V93.9152C120.552 92.3813 119.308 91.1378 117.775 91.1378Z" fill="#F2C94C"/>
<path d="M48.6208 95.2616V93.9151C48.6208 92.3812 49.8643 91.1378 51.398 91.1378H46.7773C45.2435 91.1378 44 92.3813 44 93.9151V95.2616C44 96.7955 45.2435 98.0389 46.7773 98.0389H51.398C49.8643 98.0389 48.6208 96.7955 48.6208 95.2616Z" fill="#F2994A"/>
<path d="M53.2877 95.8213C53.953 95.8213 54.4922 95.2821 54.4922 94.6169C54.4922 93.9516 53.953 93.4124 53.2877 93.4124C52.6225 93.4124 52.0833 93.9516 52.0833 94.6169C52.0833 95.2821 52.6225 95.8213 53.2877 95.8213Z" fill="#EFEDEE"/>
<path d="M117.775 75.3892H46.7773C45.2435 75.3892 44 76.6327 44 78.1664V79.5128C44 81.0467 45.2435 82.29 46.7773 82.29H117.775C119.308 82.29 120.552 81.0465 120.552 79.5128V78.1664C120.552 76.6327 119.308 75.3892 117.775 75.3892Z" fill="#F2C94C"/>
<path d="M53.2877 80.072C53.953 80.072 54.4922 79.5327 54.4922 78.8675C54.4922 78.2022 53.953 77.663 53.2877 77.663C52.6225 77.663 52.0833 78.2022 52.0833 78.8675C52.0833 79.5327 52.6225 80.072 53.2877 80.072Z" fill="#EFEDEE"/>
<path d="M111.264 95.8213C111.929 95.8213 112.468 95.2821 112.468 94.6169C112.468 93.9516 111.929 93.4124 111.264 93.4124C110.598 93.4124 110.059 93.9516 110.059 94.6169C110.059 95.2821 110.598 95.8213 111.264 95.8213Z" fill="#EFEDEE"/>
<path d="M111.264 80.072C111.929 80.072 112.468 79.5327 112.468 78.8675C112.468 78.2022 111.929 77.663 111.264 77.663C110.598 77.663 110.059 78.2022 110.059 78.8675C110.059 79.5327 110.598 80.072 111.264 80.072Z" fill="#EFEDEE"/>
<path d="M48.6208 79.5129V78.1664C48.6208 76.6325 49.8643 75.3892 51.398 75.3892H46.7773C45.2435 75.3892 44 76.6327 44 78.1664V79.5129C44 81.0468 45.2435 82.2902 46.7773 82.2902H51.398C49.8643 82.2902 48.6208 81.0468 48.6208 79.5129Z" fill="#F2994A"/>
</g>
<circle cx="128" cy="33" r="13" stroke="black" stroke-width="2"/>
<path d="M128 0V16" stroke="black" stroke-width="2"/>
<path d="M128 50V66" stroke="black" stroke-width="2"/>
<path d="M128 0V16" stroke="black" stroke-width="2"/>
<path d="M128 50V66" stroke="black" stroke-width="2"/>
<path d="M128 0V16" stroke="black" stroke-width="2"/>
<path d="M128 50V66" stroke="black" stroke-width="2"/>
<path d="M95 33H111" stroke="black" stroke-width="2"/>
<path d="M145 33H161" stroke="black" stroke-width="2"/>
<path d="M108.5 50.4999L115.527 44.5505" stroke="black" stroke-width="2"/>
<path d="M140.474 21.4495L147.5 15" stroke="black" stroke-width="2"/>
<path d="M145.449 52.5198L139.608 45.4024" stroke="black" stroke-width="2"/>
<path d="M116.892 20.1046L110.551 12.9802" stroke="black" stroke-width="2"/>
<defs>
<filter id="filter0_d" x="30" y="72" width="104.552" height="86.2676" filterUnits="userSpaceOnUse" color-interpolation-filters="sRGB">
<feFlood flood-opacity="0" result="BackgroundImageFix"/>
<feColorMatrix in="SourceAlpha" type="matrix" values="0 0 0 0 0 0 0 0 0 0 0 0 0 0 0 0 0 0 127 0"/>
<feOffset dy="14"/>
<feGaussianBlur stdDeviation="7"/>
<feColorMatrix type="matrix" values="0 0 0 0 0 0 0 0 0 0 0 0 0 0 0 0 0 0 0.1 0"/>
<feBlend mode="normal" in2="BackgroundImageFix" result="effect1_dropShadow"/>
<feBlend mode="normal" in="SourceGraphic" in2="effect1_dropShadow" result="shape"/>
</filter>
</defs>
</svg>
