<svg width="17" height="17" viewBox="0 0 17 17" fill="none" xmlns="http://www.w3.org/2000/svg">
<path d="M4.16397 14.2339C3.92146 14.2339 3.67895 14.1571 3.46725 14.0033C3.04334 13.6955 2.87428 13.1747 3.03662 12.6766L4.24739 8.96105L1.07991 6.67419C0.654961 6.36737 0.484572 5.8469 0.645784 5.34819C0.806996 4.84948 1.24982 4.52725 1.77395 4.52725H5.67827L6.86945 0.822712C7.02994 0.323591 7.47245 0.000662256 7.99677 0H7.99831C8.52194 0 8.96451 0.321699 9.12607 0.82L10.328 4.52725H10.7513C10.9255 4.52725 11.0666 4.66847 11.0666 4.84261C11.0666 5.01675 10.9255 5.15797 10.7513 5.15797H10.0987C9.962 5.15797 9.84084 5.06989 9.79867 4.93987L8.52607 1.01451C8.43433 0.731509 8.19336 0.63072 7.99819 0.63072C7.99797 0.63072 7.99774 0.63072 7.99752 0.63072C7.80222 0.630973 7.56107 0.732235 7.46989 1.01578L6.20836 4.93914C6.16642 5.06954 6.04513 5.15797 5.90814 5.15797H1.77395C1.47622 5.15797 1.30596 5.35646 1.24591 5.5422C1.18587 5.72798 1.20772 5.98853 1.4491 6.16286L4.80308 8.58436C4.91422 8.66459 4.96079 8.80741 4.91831 8.93775L3.63628 12.872C3.54407 13.155 3.67993 13.3783 3.83786 13.493C3.99576 13.6076 4.25022 13.6677 4.49072 13.4925L7.83508 11.0558C7.94562 10.9752 8.09554 10.9751 8.2062 11.0556L11.5388 13.4778C11.7796 13.6528 12.034 13.5923 12.1918 13.4774C12.3496 13.3624 12.4851 13.1388 12.3923 12.8559L11.1081 8.94131C11.0654 8.81107 11.1116 8.66815 11.2226 8.5877L14.5679 6.16214C14.8087 5.98755 14.8302 5.72713 14.77 5.54164C14.7098 5.35614 14.5396 5.15794 14.2422 5.15794H13.5896C13.4154 5.15794 13.2742 5.01672 13.2742 4.84258C13.2742 4.66844 13.4154 4.52722 13.5896 4.52722H14.2422C14.7657 4.52722 15.2084 4.84901 15.37 5.34703C15.5315 5.84504 15.362 6.36542 14.9381 6.67274L11.7791 8.96326L12.9916 12.6593C13.155 13.1573 12.9869 13.6785 12.5632 13.9871C12.1397 14.2958 11.592 14.2961 11.168 13.9879L8.02102 11.7007L4.86215 14.0022C4.65016 14.1566 4.40708 14.2339 4.16397 14.2339Z" fill="#4F4F4F"/>
<path d="M8.00799 16.1464C7.83381 16.1464 7.69263 16.0052 7.69263 15.8311V13.2805C7.69263 13.1064 7.83381 12.9652 8.00799 12.9652C8.18216 12.9652 8.32335 13.1064 8.32335 13.2805V15.8311C8.32335 16.0052 8.18216 16.1464 8.00799 16.1464Z" fill="#4F4F4F"/>
<path d="M15.7006 10.5575C15.6683 10.5575 15.6355 10.5525 15.6031 10.542L13.1774 9.75384C13.0118 9.7 12.9211 9.52208 12.975 9.35645C13.0288 9.19082 13.2067 9.10028 13.3724 9.15396L15.798 9.94211C15.9637 9.99594 16.0543 10.1739 16.0005 10.3395C15.9572 10.4728 15.8335 10.5575 15.7006 10.5575Z" fill="#4F4F4F"/>
<path d="M11.263 3.57767C11.1987 3.57767 11.1339 3.55809 11.0779 3.51741C10.937 3.41504 10.9057 3.21782 11.0081 3.07691L12.5073 1.01348C12.6097 0.872576 12.8068 0.841324 12.9478 0.943721C13.0887 1.04609 13.1199 1.24331 13.0175 1.38422L11.5183 3.44765C11.4567 3.53261 11.3605 3.57767 11.263 3.57767Z" fill="#4F4F4F"/>
<path d="M4.75307 3.57765C4.65553 3.57765 4.55938 3.53256 4.49766 3.44763L2.9985 1.38423C2.89614 1.24333 2.92739 1.0461 3.06826 0.943735C3.2092 0.841306 3.40639 0.872589 3.50876 1.01349L5.00792 3.07693C5.11028 3.21783 5.07903 3.41505 4.93816 3.51742C4.88221 3.55807 4.81734 3.57765 4.75307 3.57765Z" fill="#4F4F4F"/>
<path d="M0.315357 10.5575C0.182401 10.5575 0.0588118 10.4728 0.0154813 10.3395C-0.0383191 10.1739 0.0523154 9.99593 0.217943 9.9421L2.64363 9.15395C2.80932 9.10015 2.98718 9.19079 3.04102 9.35645C3.09485 9.52208 3.00418 9.7 2.83855 9.75383L0.412898 10.542C0.380511 10.5525 0.34765 10.5575 0.315357 10.5575Z" fill="#4F4F4F"/>
<path d="M12.1704 5.15804C12.0875 5.15804 12.0061 5.12433 11.9474 5.06564C11.8888 5.00698 11.855 4.92562 11.855 4.84268C11.855 4.75974 11.8888 4.67838 11.9474 4.61975C12.0061 4.5611 12.0871 4.52732 12.1704 4.52732C12.2533 4.52732 12.3347 4.56106 12.3934 4.61975C12.452 4.67838 12.4858 4.75974 12.4858 4.84268C12.4858 4.92562 12.452 5.00698 12.3934 5.06564C12.3347 5.1243 12.2533 5.15804 12.1704 5.15804Z" fill="#4F4F4F"/>
</svg>

