<svg width="16" height="16" viewBox="0 0 16 16" fill="none" xmlns="http://www.w3.org/2000/svg">
<path d="M15.8233 3.99819L8.14982 0.0363759C8.05581 -0.0121253 7.94419 -0.0121253 7.85018 0.0363759L0.176746 3.99819C0.0428987 4.06732 -0.0263218 4.21901 0.00927283 4.36542C0.0448362 4.5118 0.175933 4.61489 0.326562 4.61489H15.6734C15.8241 4.61489 15.9552 4.51183 15.9907 4.36542C16.0263 4.21901 15.9571 4.06729 15.8233 3.99819ZM1.67078 3.96182L6.874 1.27541L4.84458 3.96182H1.67078ZM7.67346 3.96178H5.66301L7.67346 1.30047V3.96178ZM8.32654 3.96178V1.30047L10.337 3.96178H8.32654ZM11.1555 3.96178L9.12603 1.27537L14.3292 3.96178H11.1555Z" fill="black"/>
<path d="M13.9098 8.39177H13.2778H8.32657V6.25256C8.32657 6.07222 8.18038 5.92603 8.00003 5.92603C7.81968 5.92603 7.67349 6.07222 7.67349 6.25256V8.39177H6.69666H2.08942C1.90907 8.39177 1.76288 8.53797 1.76288 8.71831V9.76321C1.76288 9.94356 1.90907 10.0898 2.08942 10.0898H7.6063L7.68459 10.168C7.67734 10.1951 7.67312 10.2233 7.67312 10.2526V13.8918C6.56472 13.9878 5.54281 14.568 4.89286 15.485C4.82227 15.5847 4.81311 15.7154 4.86917 15.8238C4.92524 15.9323 5.03715 16.0004 5.15924 16.0004H10.8409C10.9629 16.0004 11.0749 15.9323 11.1309 15.8238C11.187 15.7154 11.1779 15.5847 11.1072 15.485C10.4572 14.5678 9.43485 13.9875 8.32616 13.8917V10.8096L9.75633 12.2398C9.81754 12.301 9.90061 12.3354 9.98721 12.3354C10.0738 12.3354 10.1569 12.301 10.2181 12.2398L12.3705 10.0874C12.3829 10.0888 12.3954 10.0897 12.4082 10.0897H13.9098C14.0901 10.0897 14.2363 9.94353 14.2363 9.76318V8.71828C14.2363 8.53796 14.0901 8.39177 13.9098 8.39177ZM2.41596 9.43667V9.04485H6.5614L6.95322 9.43667H2.41596ZM10.1169 15.3473H5.8832C6.45787 14.8276 7.21148 14.5305 8.00003 14.5305C8.78858 14.5305 9.54219 14.8276 10.1169 15.3473ZM9.98721 11.5471L9.45669 11.0166L9.89805 10.5752C10.0255 10.4477 10.0255 10.241 9.89805 10.1134C9.77054 9.98594 9.56379 9.98594 9.43622 10.1134L8.99487 10.5548L7.48493 9.04482H12.4894L9.98721 11.5471ZM13.5833 9.43667H13.0212L13.413 9.04485H13.5833V9.43667Z" fill="black"/>
<path d="M10.6481 9.36345C10.5206 9.23595 10.3138 9.23595 10.1862 9.36345L10.1832 9.36648C10.0557 9.49398 10.0557 9.70074 10.1832 9.8283C10.247 9.89209 10.3305 9.92393 10.4141 9.92393C10.4977 9.92393 10.5813 9.89206 10.645 9.8283L10.648 9.82527C10.7756 9.69771 10.7756 9.49095 10.6481 9.36345Z" fill="black"/>
<path d="M8.00006 4.97961C7.81971 4.97961 7.67352 5.12581 7.67352 5.30615V5.31044C7.67352 5.49078 7.81971 5.63697 8.00006 5.63697C8.18041 5.63697 8.3266 5.49078 8.3266 5.31044V5.30615C8.3266 5.12581 8.18041 4.97961 8.00006 4.97961Z" fill="black"/>
</svg>
