<svg width="18" height="21" viewBox="0 0 18 21" fill="none" xmlns="http://www.w3.org/2000/svg">
<mask id="path-1-inside-1" fill="white">
<path d="M6.06939 5.17987L5.81065 6.68844C5.73845 7.10903 5.90815 7.52618 6.2534 7.77702C6.59871 8.02785 7.04774 8.06027 7.42559 7.86178L8.78034 7.14954L10.1351 7.86178C10.2994 7.94811 10.4772 7.99079 10.6541 7.99079C10.884 7.99079 11.1122 7.91877 11.3073 7.77702C11.6526 7.52618 11.8222 7.10903 11.75 6.68844L11.4913 5.17987L12.5873 4.11151C12.8929 3.81365 13.0008 3.37646 12.869 2.97065C12.7371 2.56473 12.3928 2.27447 11.9705 2.21308L10.4558 1.99291L9.77842 0.620416C9.58953 0.237734 9.20709 0 8.78034 0C8.35359 0 7.97115 0.237734 7.78225 0.620416L7.10485 1.99291L5.59024 2.21308C5.1679 2.27441 4.82361 2.56467 4.69171 2.97059C4.55986 3.3764 4.66774 3.81365 4.97333 4.11151L6.06939 5.17987ZM5.55209 3.25016C5.5641 3.2131 5.60455 3.12514 5.72034 3.1083L7.30413 2.87811C7.55563 2.84164 7.77284 2.6839 7.88512 2.45613L8.5935 1.02085C8.64529 0.915984 8.74146 0.904695 8.78034 0.904695C8.81922 0.904695 8.91551 0.915984 8.96718 1.02085L9.67562 2.45619C9.78802 2.6839 10.0052 2.8417 10.2564 2.87811L11.8404 3.1083C11.9561 3.12514 11.9966 3.21316 12.0086 3.25016C12.0207 3.28723 12.0396 3.38213 11.9559 3.46375L10.8097 4.58107C10.6279 4.75831 10.545 5.01349 10.5879 5.26384L10.8584 6.84135C10.8782 6.95666 10.807 7.02234 10.7755 7.04522C10.744 7.06816 10.6595 7.11555 10.556 7.06104L9.13929 6.31626C9.02689 6.25716 8.90355 6.22758 8.78028 6.22758C8.65694 6.22758 8.53367 6.25716 8.42132 6.3162L7.00458 7.06104C6.9011 7.11555 6.81659 7.06804 6.78507 7.04522C6.75356 7.02228 6.68244 6.95666 6.70212 6.84135L6.9727 5.26396C7.01568 5.01367 6.9328 4.75843 6.7509 4.58101L5.60473 3.46375C5.521 3.38213 5.54002 3.28717 5.55209 3.25016Z"/>
</mask>
<path d="M6.06939 5.17987L7.055 5.34892L7.14388 4.83074L6.76739 4.46377L6.06939 5.17987ZM5.81065 6.68844L6.79623 6.85763L6.79626 6.85749L5.81065 6.68844ZM6.2534 7.77702L5.66562 8.58604L5.66569 8.58609L6.2534 7.77702ZM7.42559 7.86178L7.89065 8.74706L7.89093 8.74691L7.42559 7.86178ZM8.78034 7.14954L9.24568 6.26441L8.78034 6.01976L8.315 6.26441L8.78034 7.14954ZM10.1351 7.86178L9.66974 8.74691L9.67001 8.74705L10.1351 7.86178ZM11.3073 7.77702L10.7196 6.96795L10.7194 6.96807L11.3073 7.77702ZM11.75 6.68844L10.7644 6.85748L10.7644 6.85763L11.75 6.68844ZM11.4913 5.17987L10.7933 4.46379L10.4168 4.83075L10.5057 5.34892L11.4913 5.17987ZM12.5873 4.11151L11.8894 3.39534L11.8893 3.39543L12.5873 4.11151ZM12.869 2.97065L11.9179 3.27957L11.9179 3.27966L12.869 2.97065ZM11.9705 2.21308L12.1144 1.22348L12.1143 1.22348L11.9705 2.21308ZM10.4558 1.99291L9.5591 2.4355L9.79176 2.90689L10.312 2.98251L10.4558 1.99291ZM9.77842 0.620416L10.6752 0.17783L10.6751 0.177791L9.77842 0.620416ZM7.78225 0.620416L6.88555 0.177791L6.88553 0.177831L7.78225 0.620416ZM7.10485 1.99291L7.2487 2.98251L7.76892 2.90689L8.00158 2.4355L7.10485 1.99291ZM5.59024 2.21308L5.73396 3.2027L5.73409 3.20268L5.59024 2.21308ZM4.69171 2.97059L3.74066 2.66155L3.74064 2.66159L4.69171 2.97059ZM4.97333 4.11151L5.67133 3.39541L5.67132 3.39541L4.97333 4.11151ZM5.72034 3.1083L5.57651 2.11869L5.57639 2.11871L5.72034 3.1083ZM7.30413 2.87811L7.16065 1.88845L7.1603 1.8885L7.30413 2.87811ZM7.88512 2.45613L6.98839 2.01355L6.98819 2.01396L7.88512 2.45613ZM8.5935 1.02085L7.69691 0.577973L7.69677 0.578269L8.5935 1.02085ZM8.96718 1.02085L8.07019 1.46289L8.07046 1.46344L8.96718 1.02085ZM9.67562 2.45619L8.77889 2.89878L8.77892 2.89883L9.67562 2.45619ZM10.2564 2.87811L10.4002 1.8885L10.3998 1.88845L10.2564 2.87811ZM11.8404 3.1083L11.9844 2.11872L11.9842 2.11869L11.8404 3.1083ZM12.0086 3.25016L12.9599 2.94185L12.9598 2.94139L12.0086 3.25016ZM11.9559 3.46375L11.2579 2.74767L11.2579 2.74767L11.9559 3.46375ZM10.8097 4.58107L10.1116 3.86498L10.1114 3.86521L10.8097 4.58107ZM10.5879 5.26384L9.6022 5.4326L9.60225 5.4329L10.5879 5.26384ZM10.8584 6.84135L11.8441 6.6726L11.844 6.6723L10.8584 6.84135ZM10.7755 7.04522L10.188 6.23601L10.1862 6.23729L10.7755 7.04522ZM10.556 7.06104L11.0219 6.1762L11.0213 6.1759L10.556 7.06104ZM9.13929 6.31626L8.67392 7.20138L8.67396 7.2014L9.13929 6.31626ZM8.42132 6.3162L7.95612 5.43099L7.95598 5.43107L8.42132 6.3162ZM7.00458 7.06104L6.53923 6.17591L6.53847 6.17631L7.00458 7.06104ZM6.78507 7.04522L6.19653 7.85369L6.19856 7.85516L6.78507 7.04522ZM6.70212 6.84135L5.71652 6.67229L5.71638 6.67311L6.70212 6.84135ZM6.9727 5.26396L5.98713 5.09471L5.9871 5.0949L6.9727 5.26396ZM6.7509 4.58101L7.44917 3.86516L7.44892 3.86492L6.7509 4.58101ZM5.60473 3.46375L6.30275 2.74767L6.30275 2.74767L5.60473 3.46375ZM5.08379 5.01082L4.82504 6.51939L6.79626 6.85749L7.055 5.34892L5.08379 5.01082ZM4.82507 6.51925C4.68844 7.31516 5.01246 8.1115 5.66562 8.58604L6.84118 6.96799C6.8201 6.95268 6.80831 6.93566 6.80179 6.91962C6.79526 6.90358 6.79184 6.88322 6.79623 6.85763L4.82507 6.51925ZM5.66569 8.58609C6.31899 9.06065 7.17611 9.12242 7.89065 8.74706L6.96053 6.9765C6.93727 6.98872 6.91668 6.99175 6.89938 6.9905C6.88209 6.98925 6.86225 6.9833 6.84111 6.96795L5.66569 8.58609ZM7.89093 8.74691L9.24568 8.03467L8.315 6.26441L6.96025 6.97665L7.89093 8.74691ZM8.315 8.03467L9.66974 8.74691L10.6004 6.97665L9.24568 6.26441L8.315 8.03467ZM9.67001 8.74705C9.97813 8.90892 10.3156 8.99079 10.6541 8.99079V6.99079C10.6388 6.99079 10.6207 6.98729 10.6002 6.97651L9.67001 8.74705ZM10.6541 8.99079C11.0943 8.99079 11.5285 8.85243 11.8952 8.58597L10.7194 6.96807C10.696 6.9851 10.6737 6.99079 10.6541 6.99079V8.99079ZM11.895 8.58609C12.5484 8.11149 12.8722 7.31506 12.7356 6.51925L10.7644 6.85763C10.7688 6.88327 10.7654 6.90364 10.7589 6.91965C10.7524 6.93566 10.7406 6.95265 10.7196 6.96795L11.895 8.58609ZM12.7356 6.51939L12.4769 5.01082L10.5057 5.34892L10.7644 6.85748L12.7356 6.51939ZM12.1893 5.89595L13.2853 4.82759L11.8893 3.39543L10.7933 4.46379L12.1893 5.89595ZM13.2852 4.82768C13.8636 4.26408 14.0695 3.42942 13.82 2.66165L11.9179 3.27966C11.926 3.30441 11.9255 3.32509 11.9213 3.34189C11.9172 3.35869 11.908 3.37719 11.8894 3.39534L13.2852 4.82768ZM13.8201 2.66173C13.5706 1.8937 12.9133 1.33963 12.1144 1.22348L11.8266 3.20268C11.8525 3.20643 11.8708 3.21602 11.8841 3.22719C11.8973 3.23835 11.9098 3.2548 11.9179 3.27957L13.8201 2.66173ZM12.1143 1.22348L10.5997 1.00331L10.312 2.98251L11.8267 3.20268L12.1143 1.22348ZM11.3526 1.55033L10.6752 0.17783L8.8817 1.063L9.5591 2.4355L11.3526 1.55033ZM10.6751 0.177791C10.3178 -0.546162 9.58774 -1 8.78034 -1V1C8.80638 1 8.82592 1.00684 8.84065 1.01599C8.85538 1.02515 8.87017 1.03965 8.88172 1.06304L10.6751 0.177791ZM8.78034 -1C7.97294 -1 7.2429 -0.546163 6.88555 0.177791L8.67896 1.06304C8.6905 1.03965 8.7053 1.02515 8.72003 1.01599C8.73475 1.00684 8.75429 1 8.78034 1V-1ZM6.88553 0.177831L6.20812 1.55033L8.00158 2.4355L8.67898 1.063L6.88553 0.177831ZM6.961 1.00331L5.44639 1.22348L5.73409 3.20268L7.2487 2.98251L6.961 1.00331ZM5.44652 1.22346C4.64741 1.33951 3.99019 1.89365 3.74066 2.66155L5.64275 3.27964C5.65082 3.25481 5.66338 3.23833 5.67662 3.22717C5.68986 3.21601 5.70819 3.20644 5.73396 3.2027L5.44652 1.22346ZM3.74064 2.66159C3.49121 3.42932 3.6971 4.264 4.27533 4.82762L5.67132 3.39541C5.65273 3.37728 5.64351 3.35877 5.63935 3.34191C5.63518 3.32505 5.63473 3.30434 5.64277 3.2796L3.74064 2.66159ZM4.27533 4.82761L5.3714 5.89597L6.76739 4.46377L5.67133 3.39541L4.27533 4.82761ZM6.50337 3.55848C6.48253 3.62279 6.43783 3.73354 6.33762 3.8439C6.22304 3.97008 6.05753 4.06977 5.86429 4.09788L5.57639 2.11871C4.90016 2.21708 4.65938 2.76111 4.60081 2.94185L6.50337 3.55848ZM5.86417 4.0979L7.44796 3.86771L7.1603 1.8885L5.57651 2.11869L5.86417 4.0979ZM7.44761 3.86776C8.02476 3.78408 8.52397 3.42182 8.78206 2.89829L6.98819 2.01396C7.0217 1.94597 7.08649 1.89921 7.16065 1.88845L7.44761 3.86776ZM8.78185 2.8987L9.49023 1.46342L7.69677 0.578269L6.98839 2.01355L8.78185 2.8987ZM9.49008 1.46372C9.40354 1.63891 9.25753 1.76539 9.10235 1.83527C8.96662 1.89639 8.84768 1.90469 8.78034 1.90469V-0.0953052C8.59122 -0.0953052 7.99948 -0.0345782 7.69691 0.577973L9.49008 1.46372ZM8.78034 1.90469C8.7131 1.90469 8.59422 1.89641 8.45852 1.83533C8.30329 1.76546 8.15687 1.63879 8.07019 1.46289L9.86418 0.578803C9.56168 -0.0350298 8.96857 -0.0953052 8.78034 -0.0953052V1.90469ZM8.07046 1.46344L8.77889 2.89878L10.5723 2.0136L9.86391 0.578255L8.07046 1.46344ZM8.77892 2.89883C9.03692 3.42149 9.53567 3.78409 10.1129 3.86776L10.3998 1.88845C10.4748 1.89932 10.5391 1.94631 10.5723 2.01354L8.77892 2.89883ZM10.1126 3.86771L11.6966 4.0979L11.9842 2.11869L10.4002 1.8885L10.1126 3.86771ZM11.6964 4.09787C11.5029 4.06971 11.3375 3.96985 11.2231 3.84393C11.1231 3.7338 11.0784 3.62327 11.0575 3.55893L12.9598 2.94139C12.9013 2.76125 12.6606 2.21713 11.9844 2.11872L11.6964 4.09787ZM11.0574 3.55848C11.0368 3.49501 11.0079 3.37938 11.0241 3.23132C11.0427 3.06202 11.1179 2.88406 11.2579 2.74767L12.6539 4.17983C13.1433 3.70281 13.018 3.12112 12.9599 2.94185L11.0574 3.55848ZM11.2579 2.74767L10.1116 3.86498L11.5077 5.29715L12.6539 4.17983L11.2579 2.74767ZM10.1114 3.86521C9.69425 4.27211 9.50383 4.85805 9.6022 5.4326L11.5735 5.09509C11.5862 5.16894 11.5616 5.24451 11.5079 5.29692L10.1114 3.86521ZM9.60225 5.4329L9.87283 7.01041L11.844 6.6723L11.5735 5.09479L9.60225 5.4329ZM9.87277 7.0101C9.8398 6.81752 9.88357 6.62936 9.96807 6.48157C10.042 6.35231 10.1334 6.27565 10.188 6.23602L11.363 7.85443C11.5163 7.7431 11.9594 7.34608 11.8441 6.6726L9.87277 7.0101ZM10.1862 6.23729C10.2417 6.19681 10.3432 6.13346 10.4892 6.10311C10.6562 6.0684 10.8489 6.0851 11.0219 6.1762L10.0901 7.94588C10.695 8.2644 11.2102 7.96589 11.3648 7.85315L10.1862 6.23729ZM11.0213 6.1759L9.60463 5.43112L8.67396 7.2014L10.0907 7.94617L11.0213 6.1759ZM9.60467 5.43115C9.34682 5.29558 9.06351 5.22758 8.78028 5.22758V7.22758C8.7436 7.22758 8.70695 7.21874 8.67392 7.20138L9.60467 5.43115ZM8.78028 5.22758C8.497 5.22758 8.21382 5.29557 7.95612 5.43099L8.88652 7.20141C8.85352 7.21875 8.81688 7.22758 8.78028 7.22758V5.22758ZM7.95598 5.43107L6.53923 6.17591L7.46992 7.94617L8.88667 7.20133L7.95598 5.43107ZM6.53847 6.17631C6.71203 6.08487 6.90505 6.06841 7.07176 6.10314C7.2175 6.1335 7.31826 6.19666 7.37158 6.23528L6.19856 7.85516C6.34931 7.96432 6.86472 8.26501 7.47068 7.94577L6.53847 6.17631ZM7.37361 6.23675C7.42741 6.27591 7.51867 6.35239 7.59255 6.48161C7.67699 6.62932 7.7207 6.81727 7.68787 7.0096L5.71638 6.67311C5.60149 7.34622 6.04423 7.74281 6.19653 7.85369L7.37361 6.23675ZM7.68773 7.01042L7.95831 5.43303L5.9871 5.0949L5.71652 6.67229L7.68773 7.01042ZM7.95827 5.43322C8.05699 4.8584 7.86649 4.27223 7.44917 3.86516L6.05264 5.29685C5.99911 5.24463 5.97438 5.16895 5.98713 5.09471L7.95827 5.43322ZM7.44892 3.86492L6.30275 2.74767L4.90672 4.17983L6.05289 5.29709L7.44892 3.86492ZM6.30275 2.74767C6.44286 2.88424 6.51813 3.06245 6.5366 3.23188C6.55274 3.38004 6.52379 3.49591 6.50277 3.56034L4.60141 2.93999C4.54255 3.12038 4.41706 3.70253 4.90672 4.17983L6.30275 2.74767Z" fill="#4F4F4F" mask="url(#path-1-inside-1)"/>
<rect x="0.375" y="12.7386" width="16.25" height="3.88636" rx="1.625" stroke="#4F4F4F" stroke-width="0.75"/>
<path d="M3.09091 16.5476V19.5909C3.09091 19.8671 3.31477 20.0909 3.59091 20.0909H4.90909C5.18524 20.0909 5.40909 19.8671 5.40909 19.5909V16.5476" stroke="#4F4F4F" stroke-width="0.75"/>
<path d="M11.5909 16.5643V19.5909C11.5909 19.8671 11.8148 20.0909 12.0909 20.0909H13.4091C13.6852 20.0909 13.9091 19.8671 13.9091 19.5909V16.5643" stroke="#4F4F4F" stroke-width="0.75"/>
<path d="M1.5455 20.0909H15.4549" stroke="#4F4F4F" stroke-width="0.75" stroke-linecap="round" stroke-linejoin="round"/>
<path d="M17 20H17.5" stroke="#4F4F4F" stroke-width="0.75" stroke-linecap="round" stroke-linejoin="round"/>
</svg>

