<svg width="24" height="24" viewBox="0 0 24 24" fill="none" xmlns="http://www.w3.org/2000/svg">
<path d="M22.5122 20.0055H20.7896V9.0102C20.7896 8.74126 20.5708 8.52243 20.3019 8.52243H19.1889C19.0273 8.52243 18.8963 8.65345 18.8963 8.81509C18.8963 8.97673 19.0273 9.10774 19.1889 9.10774H20.2043V20.0055H17.4244V9.10774H17.8128C17.9744 9.10774 18.1054 8.97673 18.1054 8.81509C18.1054 8.65345 17.9744 8.52243 17.8128 8.52243H17.3268C17.0579 8.52243 16.8391 8.74126 16.8391 9.0102V20.0056H14.9754V12.7154C14.9754 12.4465 14.7565 12.2277 14.4876 12.2277H11.5125C11.2436 12.2277 11.0247 12.4465 11.0247 12.7154V20.0055H9.16098V15.9163C9.16098 15.6474 8.94215 15.4286 8.6732 15.4286H5.69816C5.42922 15.4286 5.21039 15.6474 5.21039 15.9163V17.2251C5.21039 17.3868 5.34141 17.5178 5.50305 17.5178C5.66469 17.5178 5.7957 17.3868 5.7957 17.2251V16.0139H8.57562V20.0056H5.7957V18.5861C5.7957 18.4245 5.66469 18.2934 5.50305 18.2934C5.34141 18.2934 5.21039 18.4245 5.21039 18.5861V20.0056H3.48777C3.21883 20.0055 3 20.2243 3 20.4933V21.4266C3 21.6955 3.21883 21.9143 3.48777 21.9143H22.5122C22.7812 21.9143 23 21.6955 23 21.4266V20.4933C23 20.2243 22.7812 20.0055 22.5122 20.0055ZM11.61 12.813H14.39V20.0056H11.61V12.813ZM22.4146 21.329H3.58535V20.5909H5.50309H8.86836H11.3174H14.6827H17.1317H20.497H22.4147V21.329H22.4146Z" fill="#333333"/>
<path d="M5.43158 12.717L5.26416 13.6932C5.21748 13.9654 5.32728 14.2352 5.55068 14.3975C5.67693 14.4893 5.82463 14.5359 5.9733 14.5359C6.08775 14.5359 6.20279 14.5082 6.30912 14.4524L7.18572 13.9915L8.06232 14.4524C8.3067 14.5809 8.59728 14.5598 8.82076 14.3976C9.04416 14.2352 9.15396 13.9653 9.10728 13.6932L8.93986 12.717L9.64904 12.0257C9.84677 11.833 9.91662 11.5501 9.8313 11.2875C9.74595 11.0248 9.52322 10.837 9.24994 10.7973L8.26986 10.6549L7.83158 9.7668C7.70935 9.51915 7.46189 9.36536 7.18572 9.36536C6.90959 9.36536 6.66213 9.51918 6.53994 9.7668L6.10166 10.6549L5.12154 10.7973C4.84826 10.837 4.62552 11.0248 4.54017 11.2875C4.45486 11.5502 4.52466 11.833 4.7224 12.0257L5.43158 12.717ZM5.09685 11.4684C5.10466 11.4444 5.13084 11.3875 5.20572 11.3766L6.23056 11.2276C6.39318 11.2041 6.53369 11.102 6.60646 10.9546L7.06482 10.0259C7.0983 9.95801 7.16052 9.95067 7.18572 9.95067C7.21091 9.95067 7.27314 9.95797 7.30666 10.0259L7.76502 10.9545C7.83775 11.1019 7.97826 11.204 8.14084 11.2276L9.16576 11.3766C9.24064 11.3875 9.26681 11.4444 9.27463 11.4684C9.28244 11.4923 9.2947 11.5538 9.24048 11.6066L8.49892 12.3295C8.38119 12.4441 8.32752 12.6093 8.35533 12.7713L8.53041 13.7921C8.54318 13.8666 8.49713 13.9092 8.47673 13.924C8.4563 13.9388 8.40162 13.9695 8.33474 13.9342L7.41802 13.4523C7.34529 13.414 7.26548 13.3949 7.18572 13.3949C7.10595 13.3949 7.02615 13.4141 6.95341 13.4523L6.0367 13.9342C5.9697 13.9695 5.91509 13.9388 5.8947 13.924C5.87431 13.9091 5.82826 13.8666 5.84103 13.7921L6.01611 12.7713C6.04392 12.6093 5.99021 12.4441 5.87259 12.3295L5.13095 11.6066C5.07677 11.5538 5.08904 11.4923 5.09685 11.4684Z" fill="#333333"/>
<path d="M11.2459 9.15621L11.0784 10.1324C11.0317 10.4045 11.1415 10.6744 11.3649 10.8367C11.4912 10.9284 11.6389 10.975 11.7876 10.975C11.902 10.975 12.0171 10.9474 12.1234 10.8916L13 10.4307L13.8766 10.8916C14.121 11.0201 14.4116 10.9991 14.6351 10.8367C14.8585 10.6744 14.9683 10.4045 14.9216 10.1324L14.7541 9.15621L15.4634 8.46493C15.6611 8.27219 15.7309 7.9893 15.6456 7.72668C15.5603 7.46403 15.3375 7.27625 15.0642 7.23653L14.0841 7.09411L13.6458 6.20598C13.5236 5.95836 13.2761 5.80453 13 5.80453C12.7239 5.80453 12.4764 5.95836 12.3542 6.20598L11.9159 7.09411L10.9358 7.23653C10.6625 7.27625 10.4398 7.46403 10.3544 7.72668C10.2691 7.98926 10.3389 8.27219 10.5366 8.46496L11.2459 9.15621ZM10.9111 7.90754C10.9189 7.88356 10.9451 7.82668 11.02 7.81578L12.045 7.66684C12.2075 7.64317 12.348 7.54114 12.4207 7.39379L12.8791 6.46504C12.9125 6.39719 12.9748 6.38989 13 6.38989C13.0251 6.38989 13.0874 6.39719 13.1208 6.46504L13.5793 7.39391C13.652 7.54118 13.7925 7.64317 13.9551 7.66684L14.98 7.81578C15.0549 7.82668 15.081 7.88364 15.0889 7.90758C15.0966 7.93157 15.1089 7.99297 15.0547 8.04578L14.3131 8.76871C14.1955 8.8834 14.1418 9.04852 14.1696 9.21051L14.3446 10.2313C14.3574 10.3059 14.3114 10.3484 14.291 10.3632C14.2706 10.3779 14.2159 10.4087 14.1489 10.3734L13.2323 9.89149C13.1596 9.85325 13.0798 9.83411 13 9.83411C12.9202 9.83411 12.8404 9.85325 12.7676 9.89145L11.8509 10.3734C11.7839 10.4087 11.7293 10.3779 11.7089 10.3632C11.6885 10.3484 11.6425 10.3059 11.6553 10.2313L11.8304 9.21051C11.8582 9.0486 11.8045 8.88344 11.6868 8.76868L10.9452 8.04582C10.891 7.99297 10.9033 7.93157 10.9111 7.90754Z" fill="#333333"/>
<path d="M17.0602 5.35168L16.8927 6.32781C16.846 6.59996 16.9558 6.86988 17.1792 7.03219C17.4027 7.19449 17.6932 7.21547 17.9377 7.08703L18.8143 6.62617L19.6909 7.08703C19.7972 7.14289 19.9123 7.17051 20.0268 7.17051C20.1755 7.17051 20.3232 7.12391 20.4494 7.03219C20.6728 6.86988 20.7826 6.59996 20.7359 6.32781L20.5684 5.35168L21.2776 4.66039C21.4754 4.46766 21.5452 4.18477 21.4599 3.92219C21.3746 3.65953 21.1518 3.47172 20.8785 3.43199L19.8984 3.28953L19.4601 2.40145C19.3379 2.15383 19.0904 2 18.8143 2C18.5382 2 18.2907 2.15383 18.1685 2.40145L17.7302 3.28953L16.7501 3.43199C16.4768 3.47168 16.2541 3.65949 16.1687 3.92215C16.0834 4.18473 16.1532 4.46766 16.3509 4.66039L17.0602 5.35168ZM16.7254 4.10305C16.7332 4.07906 16.7594 4.02215 16.8343 4.01125L17.8591 3.8623C18.0218 3.83871 18.1624 3.73664 18.235 3.58926L18.6934 2.66055C18.7269 2.5927 18.7891 2.58539 18.8143 2.58539C18.8395 2.58539 18.9018 2.5927 18.9352 2.66055L19.3936 3.5893C19.4663 3.73664 19.6069 3.83875 19.7694 3.8623L20.7943 4.01125C20.8692 4.02215 20.8954 4.0791 20.9032 4.10305C20.911 4.12703 20.9232 4.18844 20.8691 4.24125L20.1274 4.96422C20.0098 5.07891 19.9561 5.24402 19.9839 5.40602L20.1589 6.42676C20.1717 6.50137 20.1257 6.54387 20.1053 6.55867C20.0849 6.57352 20.0302 6.60418 19.9632 6.56891L19.0466 6.08699C18.9738 6.04875 18.894 6.02961 18.8143 6.02961C18.7345 6.02961 18.6547 6.04875 18.582 6.08695L17.6653 6.56891C17.5983 6.60418 17.5436 6.57344 17.5232 6.55867C17.5029 6.54383 17.4568 6.50137 17.4696 6.42676L17.6447 5.40609C17.6725 5.24414 17.6188 5.07898 17.5011 4.96418L16.7595 4.24125C16.7053 4.18844 16.7176 4.12699 16.7254 4.10305Z" fill="#333333"/>
</svg>

