<svg width="16" height="16" viewBox="0 0 16 16" fill="none" xmlns="http://www.w3.org/2000/svg">
<path d="M2.56257 5.39302C2.01113 5.39302 1.5625 5.84165 1.5625 6.39309V12.3132C1.5625 12.8646 2.01113 13.3132 2.56257 13.3132C3.11402 13.3132 3.56264 12.8646 3.56264 12.3132V6.39309C3.56264 5.84165 3.11402 5.39302 2.56257 5.39302ZM2.9376 12.3132C2.9376 12.52 2.76937 12.6882 2.56257 12.6882C2.35577 12.6882 2.18754 12.52 2.18754 12.3132V6.39309C2.18754 6.1863 2.35577 6.01806 2.56257 6.01806C2.76937 6.01806 2.9376 6.1863 2.9376 6.39309V12.3132Z" fill="black"/>
<path d="M5.31288 5.39302C4.76143 5.39302 4.31281 5.84165 4.31281 6.39309V12.3132C4.31281 12.8646 4.76143 13.3132 5.31288 13.3132C5.86432 13.3132 6.31295 12.8646 6.31295 12.3132V6.39309C6.31295 5.84165 5.86432 5.39302 5.31288 5.39302ZM5.6879 12.3132C5.6879 12.52 5.51967 12.6882 5.31288 12.6882C5.10608 12.6882 4.93785 12.52 4.93785 12.3132V6.39309C4.93785 6.1863 5.10608 6.01806 5.31288 6.01806C5.51967 6.01806 5.6879 6.1863 5.6879 6.39309V12.3132Z" fill="black"/>
<path d="M5.31289 4.43767C5.39508 4.43767 5.47571 4.40423 5.53384 4.3461C5.59197 4.28797 5.62541 4.20734 5.62541 4.12514C5.62541 4.04295 5.59197 3.96232 5.53384 3.90419C5.47571 3.84606 5.39508 3.81262 5.31289 3.81262C5.23069 3.81262 5.15006 3.84606 5.09193 3.90419C5.03381 3.96232 5.00037 4.04295 5.00037 4.12514C5.00037 4.20734 5.03381 4.28797 5.09193 4.3461C5.15006 4.40423 5.23069 4.43767 5.31289 4.43767Z" fill="black"/>
<path d="M15.6929 10.6326L14.1283 7.37488L14.5468 5.61069C14.5719 5.50518 14.5404 5.39424 14.4637 5.31758C14.2302 5.08403 13.9197 4.95543 13.5894 4.95543C13.2592 4.95543 12.9486 5.08403 12.7151 5.31758C12.5996 5.43305 12.4461 5.49665 12.2828 5.49665C12.1194 5.49665 11.9659 5.43305 11.8505 5.31758C11.6169 5.08403 11.3064 4.95543 10.9761 4.95543C10.8558 4.95543 10.7381 4.97271 10.6257 5.00571V4.12502C10.6257 3.95242 10.4858 3.8125 10.3132 3.8125H10.1257V2.74993C10.1257 2.57732 9.9858 2.43741 9.81319 2.43741H9.2489V1.3938C9.2489 0.797415 8.76371 0.312256 8.16736 0.312256H6.43973C5.84335 0.312256 5.35816 0.797446 5.35816 1.3938V1.54237L4.44481 0.629028C4.24052 0.424764 3.9689 0.312256 3.68004 0.312256C3.39114 0.312256 3.11953 0.424764 2.91524 0.629028L1.69362 1.85065C1.53239 2.01191 1.42888 2.21798 1.39216 2.43741H0.812557C0.639951 2.43741 0.500035 2.57732 0.500035 2.74993V3.8125H0.312522C0.139916 3.8125 0 3.95242 0 4.12502V12.7506C0 14.0258 1.03745 15.0633 2.31266 15.0633H8.31308C8.85353 15.0633 9.37822 14.8706 9.79103 14.5282C10.2953 14.8727 10.8984 15.0633 11.5336 15.0633H12.9057C13.9751 15.0633 14.9535 14.5229 15.5229 13.6177C16.0923 12.7125 16.1559 11.5966 15.6929 10.6326ZM10.9761 5.58044C11.1394 5.58044 11.293 5.64404 11.4085 5.75951C11.642 5.99303 11.9525 6.12166 12.2828 6.12166C12.613 6.12166 12.9235 5.99303 13.1571 5.75951C13.2726 5.64404 13.4261 5.58044 13.5894 5.58044C13.6975 5.58044 13.8013 5.60828 13.8926 5.66057L13.5516 7.09786H10.9045L10.6617 5.66723C10.7557 5.61066 10.8636 5.58044 10.9761 5.58044ZM6.43973 0.9373H8.16736C8.41909 0.9373 8.62386 1.1421 8.62386 1.3938V2.43741H5.98317V1.3938C5.9832 1.1421 6.188 0.9373 6.43973 0.9373ZM2.13562 2.29264L3.35724 1.07103C3.44346 0.984803 3.55809 0.9373 3.68004 0.9373C3.80195 0.9373 3.91662 0.984772 4.00284 1.07103L5.22443 2.29264C5.26646 2.33465 5.29878 2.38409 5.32137 2.43741H2.03864C2.06124 2.38406 2.09358 2.33465 2.13562 2.29264ZM2.31266 14.4382C1.3821 14.4382 0.625044 13.6812 0.625044 12.7506V4.43755H3.90652C4.07913 4.43755 4.21905 4.29763 4.21905 4.12502C4.21905 3.95242 4.07913 3.8125 3.90652 3.8125H1.12508V3.06245H9.50067V3.8125H6.71922C6.54662 3.8125 6.4067 3.95242 6.4067 4.12502C6.4067 4.29763 6.54662 4.43755 6.71922 4.43755H10.0007V8.02086L9.06314 9.973V6.39306C9.06314 5.84161 8.61451 5.39299 8.06307 5.39299C7.51162 5.39299 7.063 5.84161 7.063 6.39306V12.3131C7.063 12.8646 7.51162 13.3132 8.06307 13.3132C8.28671 13.3132 8.49344 13.2394 8.66017 13.1149C8.72946 13.2878 8.81465 13.4561 8.91628 13.6177C9.03032 13.799 9.16102 13.9654 9.30531 14.116C9.01932 14.3252 8.67639 14.4383 8.31305 14.4383H2.31266V14.4382ZM8.43809 6.39303V12.3131C8.43809 12.5199 8.26986 12.6881 8.06307 12.6881C7.85627 12.6881 7.68804 12.5199 7.68804 12.3131V6.39303C7.68804 6.18623 7.85627 6.018 8.06307 6.018C8.26986 6.018 8.43809 6.18626 8.43809 6.39303ZM14.9938 13.2849C14.5395 14.0071 13.7589 14.4382 12.9057 14.4382H11.5336C10.6803 14.4382 9.8997 14.0071 9.44538 13.2849C8.99107 12.5627 8.94035 11.6723 9.30975 10.9032L10.8372 7.72293H13.602L15.1295 10.9033C15.4989 11.6723 15.4481 12.5627 14.9938 13.2849Z" fill="black"/>
</svg>

