<svg width="20" height="20" viewBox="0 0 20 20" fill="none" xmlns="http://www.w3.org/2000/svg">
<path fill-rule="evenodd" clip-rule="evenodd" d="M1.28033 0.21967C0.987437 -0.0732233 0.512563 -0.0732233 0.21967 0.21967C-0.0732233 0.512563 -0.0732233 0.987437 0.21967 1.28033L8.70496 9.76562L0.21967 18.2509C-0.0732233 18.5438 -0.0732233 19.0187 0.21967 19.3116C0.512563 19.6045 0.987437 19.6045 1.28033 19.3116L9.76562 10.8263L18.2509 19.3116C18.5438 19.6044 19.0187 19.6044 19.3116 19.3116C19.6044 19.0187 19.6044 18.5438 19.3116 18.2509L10.8263 9.76562L19.3116 1.28036C19.6044 0.987465 19.6044 0.512591 19.3116 0.219697C19.0187 -0.0731959 18.5438 -0.0731956 18.2509 0.219697L9.76562 8.70496L1.28033 0.21967Z" fill="#828282"/>
</svg>
