<svg width="22" height="19" viewBox="0 0 22 19" fill="none" xmlns="http://www.w3.org/2000/svg">
<path d="M15.762 0.000444168C13.9268 -0.00978683 12.1821 0.83099 11 2.29536C9.82523 0.820981 8.07572 -0.0221864 6.23794 0.000444168C2.79281 0.000444168 0 2.91378 0 6.50758C0 12.6662 10.3038 18.6795 10.7215 18.9119C10.8901 19.0294 11.1099 19.0294 11.2785 18.9119C11.6962 18.6795 22 12.7533 22 6.50758C22 2.91378 19.2071 0.000444168 15.762 0.000444168ZM11 17.7499C9.38479 16.7622 1.11393 11.5042 1.11393 6.50758C1.11393 3.55555 3.40803 1.16238 6.23799 1.16238C7.97098 1.13864 9.59278 2.05048 10.5266 3.57351C10.7162 3.84624 11.0819 3.90702 11.3434 3.70918C11.3933 3.67137 11.4372 3.62561 11.4734 3.57351C13.0221 1.10278 16.1977 0.409517 18.5662 2.02507C20.0162 3.01408 20.8889 4.70036 20.886 6.50752C20.8861 11.5622 12.6152 16.7912 11 17.7499Z" fill="#F2994A"/>
</svg>

