<svg width="12" height="12" viewBox="0 0 12 12" fill="none" xmlns="http://www.w3.org/2000/svg">
<path d="M11.492 4.68234L11.4922 4.68287C11.5151 4.75665 11.4913 4.8315 11.4452 4.87357L11.4448 4.87393L8.82677 7.26932L8.61498 7.4631L8.67601 7.74359L9.44794 11.2918C9.46469 11.369 9.43359 11.4395 9.38659 11.4751L9.38655 11.4751C9.34363 11.5076 9.29352 11.5085 9.2519 11.4824L9.25072 11.4816L6.2642 9.61839L6.0001 9.45362L5.73597 9.61834L2.74835 11.4816L2.74812 11.4817C2.72525 11.496 2.70411 11.501 2.68549 11.501C2.66354 11.501 2.63829 11.4942 2.61236 11.4746C2.56626 11.4398 2.53478 11.3699 2.55162 11.2918C2.55163 11.2917 2.55164 11.2917 2.55166 11.2916L3.32354 7.74359L3.38456 7.46313L3.17282 7.26936L0.554808 4.87348L0.553874 4.87263C0.509071 4.83184 0.484745 4.75724 0.507842 4.68312C0.530177 4.61145 0.583224 4.57818 0.627556 4.57379C0.627646 4.57378 0.627735 4.57377 0.627825 4.57376L4.09104 4.24568L4.39144 4.21722L4.50579 3.93798L5.87512 0.594104C5.87515 0.594034 5.87518 0.593965 5.87521 0.593896C5.9034 0.525521 5.95747 0.499036 6.00005 0.499036C6.04281 0.499036 6.0969 0.525721 6.12499 0.593579C6.12504 0.593689 6.12508 0.593799 6.12513 0.59391L7.49429 3.93795L7.60863 4.21721L7.90905 4.24568L11.3726 4.57385L11.3729 4.57388C11.4169 4.57801 11.47 4.61121 11.492 4.68234Z" stroke="#BDBDBD" stroke-width="0.998073"/>
</svg>

