<svg width="16" height="16" viewBox="0 0 16 16" fill="none" xmlns="http://www.w3.org/2000/svg">
<path d="M15.9999 12.375C15.9999 11.9676 15.7386 11.6202 15.3749 11.4912V8.62501C15.3749 8.45242 15.235 8.31251 15.0624 8.31251C14.8898 8.31251 14.7499 8.45242 14.7499 8.62501V11.4375H11.7499C11.2319 11.4375 10.8124 11.857 10.8124 12.375C10.8124 12.7824 11.0737 13.1297 11.4374 13.2587V15.3749H8.93746V10.8125H11.7499C12.268 10.8125 12.6874 10.393 12.6874 9.87498C12.6874 9.35804 12.2669 8.93748 11.7499 8.93748H8.31249V5.34761C8.43308 5.2188 9.06724 5.00005 9.96871 5.00005C10.908 5.00005 11.445 5.23298 11.5324 5.3407C11.5513 5.52261 11.709 5.63992 11.8748 5.62348C11.8782 5.62314 11.8815 5.62248 11.885 5.62201C12.0299 5.60289 12.1418 5.48558 12.155 5.34045C12.2432 5.23254 12.7801 5.00005 13.7187 5.00005C14.6085 5.00005 15.2376 5.21311 15.3703 5.34364C15.3765 5.36389 15.3785 5.36992 15.388 5.40176C15.4444 5.59108 15.6604 5.68076 15.8343 5.58829C16.0216 5.48839 16.04 5.26364 15.9402 5.07226C14.9368 1.94726 11.5099 0.0183281 8.0508 0.000484375C8.05071 0.000484375 8.05061 0.000484375 8.05049 0.000484375C8.04977 0.000484375 8.04905 0.000484375 8.0483 0.000453125C8.04733 0.000453125 8.04639 0.000421875 8.04543 0.000421875C8.04514 0.000421875 8.04486 0.000421875 8.04455 0.000421875C8.01427 -0.000140625 7.98383 -0.000140625 7.95493 0.000421875C7.95486 0.000421875 7.95477 0.000421875 7.95471 0.000421875C7.95449 0.000421875 7.95424 0.000421875 7.95402 0.000421875C7.95286 0.000453125 7.95161 0.000421875 7.95046 0.000453125C7.9503 0.000453125 7.95011 0.000453125 7.94996 0.000453125C4.45908 0.0182656 1.05305 1.97205 0.0594283 5.07336C-0.0719779 5.32739 0.0226158 5.5827 0.263584 5.62083C0.420647 5.64589 0.569491 5.5498 0.612959 5.39873C0.618209 5.38045 0.623647 5.36211 0.629303 5.34358C0.758616 5.21436 1.38877 5.00005 2.2813 5.00005C3.21986 5.00005 3.7568 5.23254 3.84502 5.34045C3.8594 5.50033 3.99318 5.62417 4.15511 5.62498C4.15552 5.62498 4.1559 5.62505 4.15627 5.62505C4.15627 5.62505 4.15627 5.62505 4.1563 5.62505C4.15643 5.62505 4.15652 5.62505 4.15665 5.62505C4.31483 5.62505 4.44802 5.50508 4.46655 5.35001C4.58149 5.22155 5.21808 5.00005 6.12499 5.00005C7.05977 5.00005 7.59599 5.23064 7.68746 5.33911V8.93751H4.25002C3.73199 8.93751 3.31252 9.35704 3.31252 9.87501C3.31252 10.3919 3.73308 10.8125 4.25002 10.8125H7.06249V15.3749H4.56252V13.2592C4.91849 13.1336 5.18752 12.7915 5.18752 12.375C5.18752 11.858 4.76696 11.4375 4.25002 11.4375H1.25005V8.62501C1.25005 8.45242 1.11015 8.31251 0.937553 8.31251C0.764959 8.31251 0.625053 8.45242 0.625053 8.62501V11.4907C0.269085 11.6163 5.33165e-05 11.9584 5.33165e-05 12.375C5.33165e-05 12.7824 0.261335 13.1297 0.625053 13.2587V15.3749H0.312553C0.13996 15.3749 5.33165e-05 15.5149 5.33165e-05 15.6874C5.33165e-05 15.86 0.13996 15.9999 0.312553 15.9999H15.6874C15.86 15.9999 15.9999 15.86 15.9999 15.6874C15.9999 15.5149 15.86 15.3749 15.6874 15.3749H15.3749V13.2592C15.7309 13.1336 15.9999 12.7915 15.9999 12.375ZM8.31249 0.648172C9.04386 0.754078 9.76867 1.22302 10.2944 1.94311C10.3962 2.08252 10.5917 2.11301 10.7311 2.01123C10.8705 1.90945 10.901 1.71395 10.7992 1.57458C10.6149 1.32211 10.4085 1.09577 10.1863 0.898297C12.357 1.44939 14.1833 2.79236 15.0479 4.53364C14.6449 4.42595 14.1653 4.37508 13.7186 4.37508C13.0985 4.37508 12.4755 4.46926 12.0539 4.66986C12.0107 4.47195 11.9606 4.27908 11.9112 4.0897C11.8976 4.0378 11.8842 3.98623 11.871 3.93505C11.828 3.76792 11.6577 3.66733 11.4905 3.71026C11.3234 3.75326 11.2227 3.92364 11.2657 4.09076C11.2791 4.14264 11.2927 4.19489 11.3064 4.24748C11.3343 4.35442 11.3624 4.46261 11.3891 4.57158C10.9709 4.4327 10.4434 4.37511 9.96871 4.37511C9.51042 4.37511 8.81502 4.44123 8.31249 4.64195V0.648172ZM3.93752 15.3749H1.25005V13.3124H3.93752V15.3749ZM4.25002 12.6875H0.937553C0.765241 12.6875 0.625053 12.5473 0.625053 12.375C0.625053 12.2024 0.764991 12.0625 0.937553 12.0625H4.25002C4.42233 12.0625 4.56252 12.2027 4.56252 12.375C4.56252 12.5475 4.42258 12.6875 4.25002 12.6875ZM3.93093 4.66242C3.50952 4.46683 2.89383 4.37508 2.28127 4.37508C1.83449 4.37508 1.35474 4.42598 0.951772 4.53351C1.82171 2.78058 3.66796 1.43092 5.8594 0.887047C4.80321 1.82458 4.17505 3.27189 3.93093 4.66242ZM6.12499 4.37508C5.68546 4.37508 5.06243 4.43108 4.57849 4.59798C4.78011 3.5838 5.17696 2.66123 5.7248 1.94873C6.29561 1.20636 6.98346 0.753172 7.68749 0.648609V4.62476C7.2708 4.45514 6.69668 4.37508 6.12499 4.37508ZM4.25002 10.1875C4.07771 10.1875 3.93752 10.0473 3.93752 9.87501C3.93752 9.70248 4.07746 9.56251 4.25002 9.56251H11.7499C11.9222 9.56251 12.0624 9.7027 12.0624 9.87501C12.0624 10.0475 11.9225 10.1875 11.7499 10.1875H4.25002ZM8.31249 15.3749H7.68749V10.8125H8.31249V15.3749ZM14.7499 15.3749H12.0624V13.3124H14.7499V15.3749ZM15.0624 12.6875H11.7499C11.5776 12.6875 11.4374 12.5473 11.4374 12.375C11.4374 12.2024 11.5773 12.0625 11.7499 12.0625H15.0624C15.2347 12.0625 15.3749 12.2027 15.3749 12.375C15.3749 12.5475 15.235 12.6875 15.0624 12.6875Z" fill="black"/>
</svg>
